<?xml version="1.0" encoding="utf-8"?>
<!-- Generator: Adobe Illustrator 27.0.0, SVG Export Plug-In . SVG Version: 6.00 Build 0)  -->
<svg version="1.1" xmlns="http://www.w3.org/2000/svg" xmlns:xlink="http://www.w3.org/1999/xlink" x="0px" y="0px"
	 viewBox="0 0 1047.1 660.4" style="enable-background:new 0 0 1047.1 660.4;" xml:space="preserve">
<style type="text/css">
	.st0{fill:#BF1111;stroke:#1C1C1C;stroke-miterlimit:10;}
	.st1{fill:url(#SVGID_1_);}
	.st2{fill:#AA0000;stroke:#333333;stroke-width:4;}
</style>
<g id="Layer_1" xmlns:sodipodi="http://sodipodi.sourceforge.net/DTD/sodipodi-0.dtd" xmlns:inkscape="http://www.inkscape.org/namespaces/inkscape" xmlns:svg="http://www.w3.org/2000/svg" inkscape:export-ydpi="300">
	<path id="path3775-7" class="st0" d="M177.6,100.4c-12.6,0-25.3-0.1-37.9,0.1c-3.5,0.5-6.8,3.3-7.2,7c-0.4,2.9,0,5.8-0.1,8.7
		c0,90.1,0,180.2,0,270.2c0.2,3.3,2.3,6.7,5.6,7.5c3,0.9,6.1,0.3,9.2,0.5c12,0,23.9,0.1,35.9-0.1c3.2-0.4,6.4-2.6,7.1-5.9
		c0.8-2.9,0.2-5.9,0.4-8.9c0-22.6,0-45.3,0-67.9c0.3-0.5,0.4-1.3,0.9-1.6c0.8-0.4,1.7-0.5,2.5-0.5c1.5-0.1,3.3-0.2,4.8-0.3
		c2.8-0.2,5.6-0.5,8.3-0.9c0.6-0.1,1.5-0.2,2.2-0.3c9.7-1.6,19.2-4.9,27.6-10c9.6-5.8,17.9-13.9,23.7-23.6c1.6-2.6,3-5.4,4.3-8.1
		c4.6-10,7.5-20.8,9.3-31.6c0.6-3.9,1.1-7.7,1.4-11.6c0.1-1.4,0.2-3,0.3-4.4c0.2-2.6,0.3-5.4,0.3-8c0.1-6.9,0.1-13.9,0-20.8
		c-0.1-2.7-0.2-5.3-0.3-8c-1-14-4.1-28.2-10.4-40.9c-1.8-3.5-3.7-6.8-6-10c-5.8-8.1-13.5-14.9-22.3-19.6c-1.6-0.9-3.3-1.7-4.9-2.4
		c-2.1-0.9-4.3-1.8-6.4-2.5c-1.5-0.5-3.3-1.1-5-1.6c-8-2.3-16.4-3.4-24.6-3.9C190,100.5,183.9,100.4,177.6,100.4L177.6,100.4z
		 M193.6,147.8c5.2,0.7,10.6,2.2,14.7,5.7c4.1,3.6,6.3,9,7.2,14.3c1.7,8.6,1.5,17.4,1.6,26.1c-0.1,7.9,0.1,15.8-0.1,23.8
		c-0.2,8.6-0.9,17.3-3.2,25.6c-1.5,5.5-4.1,11-8.7,14.5c-3.5,2.7-7.9,4.1-12.3,4.7c-0.8-0.7-1.6-1.3-2.3-2c0-36.9,0-73.8,0-110.7
		c0.3-0.5,0.4-1.3,0.9-1.6C192.1,147.9,192.8,147.5,193.6,147.8L193.6,147.8z"/>
	<path id="path3777-3" class="st0" d="M391.5,154.3c-13.5,0.1-26.9,0-40.4,0.1c-3.2,0.4-6.4,2.6-7.1,5.9c-0.8,3.2-1,6.6-1.6,9.8
		c-4.9,31.6-9.7,63.3-14.6,94.9c-1.1,0.1-2.1,0.4-3.2,0.4c-0.7-0.1-0.9-0.6-0.9-1.3c-6.6-34.5-13.1-69-19.7-103.5
		c-0.9-3.1-3.6-6-7-6.2c-3.9-0.3-7.8,0-11.8-0.1c-10.6,0-21.1-0.1-31.7,0.1c-3.5,0.5-6.7,3.4-7.1,7c-0.4,2.9,0.9,5.6,1.4,8.4
		c17.1,72.8,34.3,145.6,51.4,218.4c0.1,2.1-0.2,4.2-0.5,6.2c-0.9,6.6-3,13.2-7,18.7c-3.4,4.5-8.5,7.6-14.1,8.4
		c-4.4,0.9-9,0.6-13.4,0.1c-3.2,0-6.5,2-7.6,5.2c-1.1,2.9-0.5,6.1-0.7,9.1c0,6.6-0.2,13.1,0,19.7c0.5,3.2,2.7,6.2,6,7
		c4.9,1.8,10.1,3,15.3,3.7c0.8,0.1,2,0.2,2.9,0.3c4.3,0.4,8.7,0.4,13,0c0.4,0,1.2-0.1,1.6-0.2c9.7-1.1,19.2-4.3,27.2-9.9
		c4.1-2.8,7.7-6.3,10.8-10.2c0.4-0.5,1.1-1.3,1.5-2c6.4-8.5,10.5-18.4,13.7-28.5c1.5-4.9,2.8-10,3.9-15c1.3-6,2.5-12.2,3.7-18.3
		c14.8-72.7,29.5-145.4,44.3-218.1c0.7-3.3-0.7-7.3-3.9-8.9C394.7,154.7,393.1,154.2,391.5,154.3L391.5,154.3z"/>
	<path id="path3779-2" class="st0" d="M572.5,100.4c-17.8,0-35.6,0-53.3,0.1c-3.2,0.4-6.4,2.6-7.2,5.8c-4.3,16.3-8.4,32.8-12.6,49.1
		c-5.3,20.6-10.6,41.3-15.8,62c-0.5,2.4-1.1,4.7-1.6,7.1c-1.1,0.1-2.3,0.2-3.4,0.2c-0.7-0.1-0.5-1-0.7-1.5
		c-2.7-12.3-5.9-24.5-8.9-36.8c-6.6-26.7-13.2-53.4-19.9-80.1c-1.1-3.2-4.1-6-7.7-5.8c-14.9-0.1-29.8,0-44.7-0.1
		c-3.7,0-7.5,0-11.2,0.1c-3.4,0.6-6.6,3.4-6.9,7c-0.4,2.8,0,5.7-0.1,8.6c0,90.1,0,180.2,0,270.3c0.2,3.3,2.4,6.7,5.7,7.6
		c3,0.9,6.1,0.3,9.1,0.4c11,0,22.1,0.1,33.1-0.1c3.2-0.4,6.4-2.6,7.1-5.9c0.8-2.9,0.2-5.9,0.4-8.9c0-34.3,0.1-68.6-0.1-103
		c-0.1-5.5-0.1-11-0.2-16.4c0.9-0.3,1.9-0.7,2.8-0.8c0.6,0.2,1.3,0.2,1.3,1c7.2,30.8,14.3,61.6,21.6,92.3c1.1,3.1,4,5.9,7.5,5.8
		c5.6,0.2,11.2,0,16.8,0.1c3.6,0,7.3,0,10.9-0.1c3.2-0.5,6.3-2.8,6.9-6.1c1.3-5,2.3-10,3.5-15c5.9-25.5,11.8-51,17.7-76.5
		c1,0,2-0.2,3-0.1c0.5,0.3,1.2,0.5,1,1.3c-0.3,28.7-0.2,57.5-0.2,86.2c0,12.8,0,25.7,0.1,38.5c0.4,3.2,2.6,6.4,5.8,7.2
		c3,0.8,6.1,0.2,9.1,0.4c11,0,21.9,0,32.9-0.1c3.2-0.4,6.4-2.6,7.1-5.9c0.8-2.9,0.2-5.9,0.4-8.9c0-90.4,0-180.8,0-271.3
		c-0.3-3.3-2.4-6.7-5.8-7.5C574.7,100.5,573.6,100.4,572.5,100.4L572.5,100.4z"/>
	<path id="path3781-6" class="st0" d="M665.9,98c-9.3,0.3-18.8,1.3-27.6,4.5c-0.5,0.2-1,0.4-1.5,0.6c-11.3,4.3-21.6,11.9-28.4,22
		c-7.6,10.8-12.1,23.5-14.8,36.3c-2,9.7-2.8,19.5-3.1,29.4c-0.2,6.2-0.1,12.6-0.1,18.8c0,30.9-0.1,61.8,0.1,92.7
		c0.2,8.7,0.9,17.5,2.4,26c2.3,13.4,6.4,26.9,13.8,38.4c4,6.2,9,11.9,14.9,16.3c0.7,0.5,1.6,1.2,2.4,1.7c1.5,1.1,3.1,2,4.7,3
		c0.5,0.3,1.3,0.7,1.8,1c1.8,1,3.9,2,5.7,2.7c5.9,2.5,12.2,4,18.6,4.6c2.3,0.3,4.5,0.5,6.8,0.6c1.5,0.1,3,0.1,4.5,0.2
		c9.5,0.1,19.1-1.1,28.1-4.3c0.3-0.1,1.1-0.4,1.5-0.6c10.2-4.1,19.5-10.6,26.7-19c2.3-2.7,4.3-5.5,6.1-8.5c0.2-0.4,0.6-0.9,0.8-1.3
		c3.7-6.4,6.5-13.4,8.6-20.4c1.4-4.5,2.5-9.1,3.4-13.8c0.2-1.2,0.5-2.6,0.7-3.8c0.5-3,0.8-5.8,1.1-8.7c0.5-4.5,0.7-9.2,0.8-13.7
		c0.2-9.8,0.1-19.6,0.1-29.4c0-27.5,0.1-54.9-0.1-82.4c-0.2-7-0.7-13.9-1.6-20.8c-0.2-1.1-0.4-2.5-0.6-3.7
		c-1.6-9.7-4.1-19.5-8.1-28.6c-4.1-9.3-9.9-18-17.8-24.5c-7.5-6.3-16.6-10.7-26.2-13c-0.4-0.1-1.3-0.3-1.8-0.4
		c-5.3-1.1-10.7-1.5-16-1.8C669.9,98,667.9,98,665.9,98L665.9,98z M668.3,147.2c3.2,0.1,6.8,0.8,8.9,3.4c3.3,4.1,4.5,9.3,5.4,14.4
		c2,11.7,1.4,23.7,1.5,35.5c0,38.8,0,77.5-0.1,116.3c-0.2,7.8-0.8,15.6-3.3,23c-1.1,3-2.6,6.2-5.5,7.7c-3.3,1.6-7.1,1.7-10.7,1.4
		c-3.1-0.3-6.4-1.5-8.2-4.2c-2.8-3.9-3.9-8.6-4.7-13.3c-1.4-8.6-1.1-17.4-1.2-26.2c0-41.4-0.1-82.8,0.1-124.3
		c0.2-8.1,0.6-16.3,3.3-23.9c1-2.6,2.2-5.3,4.3-7.2C660.9,147.5,664.8,147.2,668.3,147.2L668.3,147.2z"/>
	<path id="path3783-5" class="st0" d="M791.7,100.4c-10.5,0-20.9,0-31.4,0.1c-3.5,0.5-6.8,3.3-7.2,7c-0.4,2.9,0,5.8-0.1,8.7
		c0,90.1,0,180.2,0,270.2c0.2,3.3,2.4,6.7,5.7,7.6c3,0.9,6.1,0.3,9.1,0.4c31,0,62.1,0,93.1,0c3.2-0.3,6.5-2.5,7.3-5.8
		c0.8-2.9,0.3-6,0.4-9c0-9,0.1-18.1-0.1-27.1c-0.5-3.1-2.6-6.2-5.9-7c-2.9-0.8-6-0.2-9-0.4c-13.5,0-27,0-40.5,0
		c-0.5-0.3-1.3-0.4-1.6-0.9c-0.3-0.7-0.5-1.4-0.4-2.2c0-77.9,0-155.9,0-233.8c-0.3-3.3-2.4-6.7-5.8-7.5c-2.4-0.8-4.9-0.3-7.3-0.4
		C795.9,100.4,793.8,100.4,791.7,100.4L791.7,100.4z"/>
</g>
<g id="Layer_3">
	<linearGradient id="SVGID_1_" gradientUnits="userSpaceOnUse" x1="135.3701" y1="947.9111" x2="871.6469" y2="947.9111">
		<stop  offset="2.428467e-02" style="stop-color:#FFCE09"/>
		<stop  offset="0.761" style="stop-color:#FFD52D"/>
		<stop  offset="1" style="stop-color:#FFDD55"/>
	</linearGradient>
	<path class="st1" d="M180.7,765.9c-12.6,0-25.3-0.1-37.9,0.1c-3.5,0.5-6.8,3.3-7.2,7c-0.4,2.9,0,5.8-0.1,8.7
		c0,90.1,0,180.2,0,270.2c0.2,3.3,2.3,6.7,5.6,7.5c3,0.9,6.1,0.3,9.2,0.5c12,0,23.9,0.1,35.9-0.1c3.2-0.4,6.4-2.6,7.1-5.9
		c0.8-2.9,0.2-5.9,0.4-8.9c0-22.6,0-45.3,0-67.9c0.3-0.5,0.4-1.3,0.9-1.6c0.8-0.4,1.7-0.5,2.5-0.5c1.5-0.1,3.3-0.2,4.8-0.3
		c2.8-0.2,5.6-0.5,8.3-0.9c0.6-0.1,1.5-0.2,2.2-0.3c9.7-1.6,19.2-4.9,27.6-10c9.6-5.8,17.9-13.9,23.7-23.6c1.6-2.6,3-5.4,4.3-8.1
		c4.6-10,7.5-20.8,9.3-31.6c0.6-3.9,1.1-7.7,1.4-11.6c0.1-1.4,0.2-3,0.3-4.4c0.2-2.6,0.3-5.4,0.3-8c0.1-6.9,0.1-13.9,0-20.8
		c-0.1-2.7-0.2-5.3-0.3-8c-1-14-4.1-28.2-10.4-40.9c-1.8-3.5-3.7-6.8-6-10c-5.8-8.1-13.5-14.9-22.3-19.6c-1.6-0.9-3.3-1.7-4.9-2.4
		c-2.1-0.9-4.3-1.8-6.4-2.5c-1.5-0.5-3.3-1.1-5-1.6c-8-2.3-16.4-3.4-24.6-3.9C193.1,766,186.9,765.9,180.7,765.9L180.7,765.9z
		 M196.6,813.2c5.2,0.7,10.6,2.2,14.7,5.7c4.1,3.6,6.3,9,7.2,14.3c1.7,8.6,1.5,17.4,1.6,26.1c-0.1,7.9,0.1,15.8-0.1,23.8
		c-0.2,8.6-0.9,17.3-3.2,25.6c-1.5,5.5-4.1,11-8.7,14.5c-3.5,2.7-7.9,4.1-12.3,4.7c-0.8-0.7-1.6-1.3-2.3-2c0-36.9,0-73.8,0-110.7
		c0.3-0.5,0.4-1.3,0.9-1.6C195.2,813.3,195.8,813,196.6,813.2L196.6,813.2z M394.6,819.8c-13.5,0.1-26.9,0-40.4,0.1
		c-3.2,0.4-6.4,2.6-7.1,5.9c-0.8,3.2-1,6.6-1.6,9.8c-4.9,31.6-9.7,63.3-14.6,94.9c-1.1,0.1-2.1,0.4-3.2,0.4
		c-0.7-0.1-0.9-0.7-0.9-1.3c-6.6-34.5-13.1-69-19.7-103.5c-0.9-3.1-3.6-6-7-6.2c-3.9-0.3-7.8,0-11.8-0.1c-10.6,0-21.1-0.1-31.7,0.1
		c-3.5,0.5-6.7,3.4-7.1,7c-0.4,2.9,0.9,5.6,1.4,8.4c17.1,72.8,34.3,145.6,51.4,218.4c0.1,2.1-0.2,4.2-0.5,6.2
		c-0.9,6.6-3,13.2-7,18.7c-3.4,4.5-8.5,7.6-14.1,8.4c-4.4,0.9-9,0.6-13.4,0.1c-3.2,0-6.5,2-7.6,5.2c-1.1,2.9-0.5,6.1-0.7,9.1
		c0,6.6-0.2,13.1,0,19.7c0.5,3.2,2.7,6.2,6,7c4.9,1.8,10.1,3,15.3,3.7c0.8,0.1,2,0.2,2.9,0.3c4.3,0.4,8.7,0.4,13,0
		c0.4,0,1.2-0.1,1.6-0.2c9.7-1.1,19.2-4.3,27.2-9.9c4.1-2.8,7.7-6.3,10.8-10.2c0.4-0.5,1.1-1.3,1.5-2c6.4-8.5,10.5-18.4,13.7-28.5
		c1.5-4.9,2.8-10,3.9-15c1.3-6,2.5-12.2,3.7-18.3c14.8-72.7,29.5-145.4,44.3-218.1c0.7-3.3-0.7-7.3-3.9-8.9
		C397.7,820.2,396.2,819.7,394.6,819.8L394.6,819.8z M575.6,765.9c-17.8,0-35.6,0-53.3,0.1c-3.2,0.4-6.4,2.6-7.2,5.8
		c-4.3,16.3-8.4,32.8-12.6,49.1c-5.3,20.6-10.6,41.3-15.8,62c-0.5,2.4-1.1,4.7-1.6,7.1c-1.1,0.1-2.3,0.2-3.4,0.2
		c-0.7-0.1-0.5-1-0.7-1.5c-2.7-12.3-5.9-24.5-8.9-36.8c-6.6-26.7-13.2-53.4-19.9-80.1c-1.1-3.2-4.1-6-7.7-5.8
		c-14.9-0.1-29.8,0-44.7-0.1c-3.7,0-7.5,0-11.2,0.1c-3.4,0.6-6.6,3.4-6.9,7c-0.4,2.8,0,5.7-0.1,8.6c0,90.1,0,180.2,0,270.3
		c0.2,3.3,2.4,6.7,5.7,7.6c3,0.9,6.1,0.3,9.1,0.4c11,0,22.1,0.1,33.1-0.1c3.2-0.4,6.4-2.6,7.1-5.9c0.8-2.9,0.2-5.9,0.4-8.9
		c0-34.3,0.1-68.6-0.1-103c-0.1-5.5-0.1-11-0.2-16.4c0.9-0.3,1.9-0.7,2.8-0.8c0.6,0.2,1.3,0.2,1.3,1c7.2,30.8,14.3,61.6,21.6,92.3
		c1.1,3.1,4,5.9,7.5,5.8c5.6,0.2,11.2,0,16.8,0.1c3.6,0,7.3,0,10.9-0.1c3.2-0.5,6.3-2.8,6.9-6.1c1.3-5,2.3-10,3.5-15
		c5.9-25.5,11.8-51,17.7-76.5c1,0,2-0.2,3-0.1c0.5,0.3,1.2,0.5,1,1.3c-0.3,28.7-0.2,57.5-0.2,86.2c0,12.8,0,25.7,0.1,38.5
		c0.4,3.2,2.6,6.4,5.8,7.2c3,0.8,6.1,0.2,9.1,0.4c11,0,21.9,0,32.9-0.1c3.2-0.4,6.4-2.6,7.1-5.9c0.8-2.9,0.2-5.9,0.4-8.9
		c0-90.4,0-180.8,0-271.3c-0.3-3.3-2.4-6.7-5.8-7.5C577.7,766,576.6,765.9,575.6,765.9L575.6,765.9z M668.9,763.5
		c-9.3,0.3-18.8,1.3-27.6,4.5c-0.5,0.2-1,0.4-1.5,0.6c-11.3,4.3-21.6,11.9-28.4,22c-7.6,10.8-12.1,23.5-14.8,36.3
		c-2,9.7-2.8,19.5-3.1,29.4c-0.2,6.2-0.1,12.6-0.1,18.8c0,30.9-0.1,61.8,0.1,92.7c0.2,8.7,0.9,17.5,2.4,26
		c2.3,13.4,6.4,26.9,13.8,38.4c4,6.2,9,11.9,14.9,16.3c0.7,0.5,1.6,1.2,2.4,1.7c1.5,1.1,3.1,2,4.7,3c0.5,0.3,1.3,0.7,1.8,1
		c1.8,1,3.9,2,5.7,2.7c5.9,2.5,12.2,4,18.6,4.6c2.3,0.3,4.5,0.5,6.8,0.6c1.5,0.1,3,0.1,4.5,0.2c9.5,0.1,19.1-1.1,28.1-4.3
		c0.3-0.1,1.1-0.4,1.5-0.6c10.2-4.1,19.5-10.6,26.7-19c2.3-2.7,4.3-5.5,6.1-8.5c0.2-0.4,0.6-0.9,0.8-1.3c3.7-6.4,6.5-13.4,8.6-20.4
		c1.4-4.5,2.5-9.1,3.4-13.8c0.2-1.2,0.5-2.6,0.7-3.8c0.5-3,0.8-5.8,1.1-8.7c0.5-4.5,0.7-9.2,0.8-13.7c0.2-9.8,0.1-19.6,0.1-29.4
		c0-27.5,0.1-54.9-0.1-82.4c-0.2-7-0.7-13.9-1.6-20.8c-0.2-1.1-0.4-2.5-0.6-3.7c-1.6-9.7-4.1-19.5-8.1-28.6
		c-4.1-9.3-9.9-18-17.8-24.5c-7.5-6.3-16.6-10.7-26.2-13c-0.4-0.1-1.3-0.3-1.8-0.4c-5.3-1.1-10.7-1.5-16-1.8
		C672.9,763.5,670.9,763.5,668.9,763.5L668.9,763.5z M671.3,812.7c3.2,0.1,6.8,0.8,8.9,3.4c3.3,4.1,4.5,9.3,5.4,14.4
		c2,11.7,1.4,23.7,1.5,35.5c0,38.8,0,77.5-0.1,116.3c-0.2,7.8-0.8,15.6-3.3,23c-1.1,3-2.6,6.2-5.5,7.7c-3.3,1.6-7.1,1.7-10.7,1.4
		c-3.1-0.3-6.4-1.5-8.2-4.2c-2.8-3.9-3.9-8.6-4.7-13.3c-1.4-8.6-1.1-17.4-1.2-26.2c0-41.4-0.1-82.8,0.1-124.3
		c0.2-8.1,0.6-16.3,3.3-23.9c1-2.6,2.2-5.3,4.3-7.2C663.9,813,667.8,812.7,671.3,812.7L671.3,812.7z M794.7,765.9
		c-10.5,0-20.9,0-31.4,0.1c-3.5,0.5-6.8,3.3-7.2,7c-0.4,2.9,0,5.8-0.1,8.7c0,90.1,0,180.2,0,270.2c0.2,3.3,2.4,6.7,5.7,7.6
		c3,0.9,6.1,0.3,9.1,0.4c31,0,62.1,0,93.1,0c3.2-0.3,6.5-2.5,7.3-5.8c0.8-2.9,0.3-6,0.4-9c0-9,0.1-18.1-0.1-27.1
		c-0.5-3.1-2.6-6.2-5.9-7c-2.9-0.8-6-0.2-9-0.4c-13.5,0-27,0-40.5,0c-0.5-0.3-1.3-0.4-1.6-0.9c-0.3-0.7-0.5-1.4-0.4-2.2
		c0-77.9,0-155.9,0-233.8c-0.3-3.3-2.4-6.7-5.8-7.5c-2.4-0.8-4.9-0.3-7.3-0.4C799,765.9,796.8,765.9,794.7,765.9L794.7,765.9z"/>
	
		<image style="overflow:visible;" width="1112" height="684" xlink:href="FB5BF94D.jpg"  transform="matrix(1 0 0 1 -89.9574 1175.7834)">
	</image>
</g>
<g id="Layer_2">
	<path id="path2082" class="st2" d="M486.2,488.4c-3.9-3.4-6.7-6.6-8.3-9.6c-1.4-2.8-2.1-5.6-2.1-8.3c0-1.1,0.2-2,0.5-2.9
		c0.2-1.1,0.4-2.1,0.5-3.2c0.9-2.7,2.9-7.2,6.1-13.6c3.4-6.4,7.4-13.7,12-21.9c4.8-8.2,9.9-16.4,15.2-24.8
		c5.3-8.5,10.4-16.2,15.2-22.9c-1.6,0.4-3.3,0.6-5.1,0.8c-1.6,0.2-3.2,0.3-4.8,0.3c-4.4,0-8.4-0.3-12-0.8c-3.4-0.7-5.3-1.2-5.9-1.3
		c-1.8-0.4-2.9-1.5-3.5-3.5c-0.4-2.1-0.4-4.3-0.3-6.4c-0.5-0.2-0.9-0.4-1.1-0.8c-0.2-0.4-0.4-0.6-0.5-0.8c0-0.4-0.1-0.7-0.3-1.1
		c0-0.4,0-0.7,0-1.1c0-1.8,0.4-2.9,1.3-3.5c1.1-0.5,2.2-0.8,3.5-0.8c1.4,0,2.9,0.2,4.5,0.5c1.8,0.2,3.6,0.3,5.3,0.3
		c3,0,6.2-0.3,9.6-0.8c3.4-0.7,5.3-1.6,5.9-2.7s1.1-1.6,1.6-1.6c0.4,0,0.9,1,1.6,2.9c0,0.2,0,0.4,0,0.5c0.2,0.2,0.3,0.4,0.3,0.8
		c0,1.6-0.7,3.3-2.1,5.1H535c3-3.9,6.3-8.3,9.9-13.1c3.7-5,7.4-9.9,10.9-14.7c3.7-5,7-9.4,9.9-13.3c3-3.9,5.2-6.9,6.7-9.1
		c-0.7-0.7-1.1-1.6-1.1-2.7c0-1.4,0.4-2.8,1.1-4.3c0.9-1.4,1.3-2.5,1.3-3.2c0-0.5-0.2-1.2-0.5-1.9c-0.2-0.7-0.3-1.3-0.3-1.9
		c0-1.4,0.8-2.1,2.4-2.1c0.4,0,1.2,0.2,2.7,0.5c2.3,0.7,5.2,2.1,8.8,4.3c3.7,2.1,6.9,4.5,9.6,7.2c2.7,2.7,3.5,5.4,2.4,8.3
		c-1.2,1.4-3.5,3.9-6.7,7.5c-3,3.6-6.5,7.6-10.4,12.3c-3.9,4.4-7.8,9.1-11.7,13.9c-3.7,4.6-7.1,8.9-10.1,12.8
		c4.8-0.4,9.7-0.6,14.7-0.8c5.2-0.2,9.7-0.4,13.6-0.5c4.1-0.2,6.8-0.3,8-0.3c3.2,0,4.8,0.4,4.8,1.3c0,0.7-0.7,1.4-2.1,2.1
		c-1.4,0.7-2.9,1.2-4.5,1.6c-0.2-0.2-2.7,0-7.5,0.5c-4.6,0.5-9.2,1.1-13.9,1.6c-2.1,0.2-4.9,0.4-8.3,0.8c-3.2,0.2-6.3,0.4-9.3,0.5
		l-1.1,1.1c3.9-0.2,8.3-0.4,13.1-0.5c5-0.4,8.9-0.5,11.7-0.5c-3,0.5-7,1-12,1.3c-5,0.2-9.8,0.6-14.4,1.3c-3.6,3.9-7.6,8.8-12,14.7
		c-4.3,5.7-8.8,11.8-13.6,18.4c-4.6,6.4-9.1,12.7-13.3,18.9c-4.3,6-8.1,11.5-11.5,16.3c-3.4,4.8-6,8.4-7.7,10.7
		c2.5-0.9,5.4-2.1,8.8-3.7c3.4-1.8,6.8-3.6,10.1-5.6c7.8-5.2,16.2-10.8,25.1-16.8c9.1-6,17-11.3,23.7-15.7c4.3-2.7,8.4-5.5,12.5-8.5
		c4.3-3.2,8.4-6.5,12.3-9.9c0.4-0.4,0.5-0.4,0.5,0c0.2,0.4,0.1,0.7-0.3,1.1l-10.1,9.1c0.2,0.7,0.3,1.4,0.3,2.1c0,0.5,0,1.2,0,1.9
		c0,1.6-0.3,3.1-0.8,4.5c-0.4,1.4-1.2,2.6-2.4,3.5c-3,2-7.6,5.2-13.9,9.6c-6,4.4-12.9,9.6-20.5,15.5c-7.6,5.7-15.2,11.5-22.7,17.3
		c-7.3,5.9-13.8,11.3-19.5,16.3C492,481.9,488.1,485.7,486.2,488.4L486.2,488.4z M490.7,461.7l12.8-8l-10.9,5.1L490.7,461.7z"/>
	<path id="path2080" class="st2" d="M361.9,501.4c-2,0-4-0.4-6.1-1.1s-4-2-5.6-3.7c-1.6-1.6-2.4-3.1-2.4-4.5c0-0.9,0.4-1.8,1.1-2.7
		c0.5-0.9,1.2-1.8,1.9-2.7c1.6-2,4.6-4.6,9.1-8c4.4-3.2,9.5-6.8,15.2-10.9l-7.5,6.9c-0.7,0.7-1.4,1.7-2.1,2.9
		c-0.5,1.4-0.4,1.8,0.3,1.1c1.6-2,5.3-5.2,11.2-9.9c5.9-4.8,12.1-9.7,18.7-14.7L375,467.8c6-4.6,12.3-9.2,18.7-13.9
		c6.4-4.6,12.2-8.8,17.3-12.5c5.3-3.7,9.2-6.3,11.7-7.7c0.2-0.2,0.4-0.3,0.8-0.3c0.7,0,1.1,0.3,1.1,0.8c0,0.7-0.7,1.3-2.1,1.9
		c-2.1,0.9-5.8,3.1-10.9,6.7c-5,3.4-10.3,7.2-16,11.5c6.9-4.6,13.5-8.8,19.7-12.5c6.4-3.9,11.3-6.8,14.7-8.8
		c-2.1-1.4-5.6-3-10.4-4.8s-10.3-3.9-16.5-6.4c-6-2.7-12.3-5.8-18.7-9.3c-6.2-3.6-11.7-7.7-16.5-12.5c-2.3-2.1-4-4.4-5.1-6.7
		c-0.9-2.5-1.3-4.9-1.3-7.2c0-5.5,2.2-11.2,6.7-17.1c4.6-5.9,10.7-11.6,18.1-17.3c7.6-5.7,15.9-11,24.8-16c4.3-2.3,8.6-4.5,13.1-6.7
		c4.6-2.3,9.2-4.4,13.6-6.4c-5,1.8-9.9,3.6-14.7,5.6c-4.8,2-9.4,4-13.9,6.1c-0.2,0.2-0.4,0.3-0.5,0.3c-0.2,0-0.3,0-0.3,0l4.8-2.9
		c9.4-4.6,18.9-8.6,28.5-12c9.8-3.6,19-6.7,27.7-9.3c-5.2,1.6-10.4,3.5-15.7,5.6c-5.3,2-10.7,4.2-16,6.7c10.5-3.7,21-6.9,31.5-9.6
		c10.7-2.8,20.5-5,29.6-6.4c9.1-1.6,16.5-2.5,22.4-2.7c3.4-0.2,5.1-0.6,5.1-1.3c0-0.5-0.9-0.8-2.7-0.8c-6,0.2-13.3,0.8-21.9,1.9
		c-8.5,1.1-17.8,2.8-27.7,5.3c9.4-2.7,18.3-4.8,26.7-6.4c8.5-1.6,15.9-2.4,22.1-2.4c3.2,0,6.1,0.3,8.8,0.8c2.3,0.4,4.4,1.9,6.1,4.5
		c1.8,2.5,3.4,5.4,4.8,8.8c1.4,3.2,2.4,6.2,2.9,9.1l0.3-0.8c0.7-1.2,1.2-2.3,1.3-3.2c0.2-1.1,0.5-2,1.1-2.9c0.4-0.5,1.2,0.2,2.4,2.1
		c1.4,2,2.7,4.2,3.7,6.7c1.2,2.5,1.7,4.6,1.3,6.4c-0.5,3.2-2.2,6.8-5.1,10.7c-2.8,3.7-6.2,7.4-10.1,10.9c-3.7,3.6-7.6,6.5-11.5,8.8
		c-3.7,2.3-7,3.5-9.9,3.5c-0.7,0-1.6-0.2-2.7-0.5c2.1-1.8,4.1-3.6,5.9-5.6c1.8-2,3.5-3.9,5.1-5.9c-6.8,6-14.4,11.8-22.9,17.3
		c-8.4,5.3-16.4,9.7-24,13.1c-7.6,3.4-13.7,5.1-18.1,5.1c-2.3,0-3.5-0.4-3.5-1.3c0-0.9,1-2,2.9-3.2c2-1.4,3.4-2.4,4.3-2.9
		c4.3-2,9.5-5.2,15.7-9.6c6.4-4.4,12.9-9.3,19.5-14.7c6.6-5.5,12.4-10.8,17.3-15.7c5.2-5.2,8.6-9.3,10.4-12.5c0.2-1.8-1.2-3-4-3.7
		c-2.8-0.7-6.6-1.1-11.2-1.1c-5.9,0-13,0.6-21.3,1.9c-8.2,1.2-16.8,3-25.9,5.3c-9.1,2.3-17.8,5.1-26.1,8.3
		c-8.4,3.2-15.6,6.8-21.9,10.9c-4.3,2.3-8.5,5.2-12.8,8.8c-4.3,3.4-7.8,7-10.7,10.9c-2.8,3.9-4.3,7.7-4.3,11.5c0,3,1.3,5.9,4,8.5
		c7.1,6.4,14.8,11.7,22.9,16c8.4,4.3,16,8.1,22.9,11.5c7.1,3.2,12.3,6.6,15.5,10.1c0.9,0.9,1.5,2.2,1.9,4c0.5,1.8,0.8,3.6,0.8,5.6
		c0,3.4-0.5,6.6-1.6,9.6s-2.6,4.7-4.5,5.1c-14.9,3-27.7,6.7-38.4,10.9c-10.5,4.3-19,8.4-25.6,12.5c-6.6,4.1-11.5,7.5-14.7,10.1
		c-3,2.7-4.7,3.9-5.1,3.7c1.4,2,2.1,3.8,2.1,5.6c0,2-0.9,3.5-2.7,4.5C366.5,500.8,364.4,501.4,361.9,501.4L361.9,501.4z
		 M469.4,310.2l1.1-0.3h0.5l0.8-0.3l0.5-0.3c0.5-0.2,0.8-0.3,0.8-0.3s0.3-0.1,0.8-0.3c0,0-0.1,0-0.3,0c0,0-0.4,0.2-1.3,0.5
		c-0.2,0-0.4,0.1-0.5,0.3c-0.4,0-0.6,0.1-0.8,0.3c-0.2,0-0.4,0.1-0.5,0.3c-0.2,0-0.2-0.1,0-0.3C470.1,310.1,469.7,310.2,469.4,310.2
		z"/>
	<path id="path2084" class="st2" d="M565.6,563.6c-0.9,0-2.4-0.8-4.5-2.4c-0.5-0.5-1.9-1.7-4-3.5c-2.1-1.6-4.1-3.5-5.9-5.6
		c-2-2-2.9-3.6-2.9-5.1c0-0.9,0.9-2.7,2.7-5.3c1.8-2.5,3.9-5.4,6.4-8.8c3.7-5.2,8.3-11.4,13.6-18.7c5.5-7.3,11.4-15.1,17.6-23.5
		c6.2-8.2,12.4-16.4,18.7-24.5c6.2-8.4,12-16.1,17.3-23.2c5.5-7.3,10.1-13.5,13.9-18.7c3.9-5.3,6.6-9.1,8-11.2
		c0.4-0.5-0.3,0.2-1.9,2.1c-1.6,1.8-3.6,4.2-6.1,7.2c-2.5,2.8-4.9,5.8-7.2,8.8c-2.1,2.8-3.6,5-4.5,6.4c0.2-0.9,1.2-2.7,3.2-5.3
		c2-2.7,4.2-5.7,6.7-9.1c2.7-3.4,5.1-6.5,7.2-9.3c2.3-2.8,3.8-4.8,4.5-5.9c-4.8,5.3-10.5,11.1-17.1,17.3c-6.4,6-13.1,12.1-20,18.1
		c-6.8,6-13.1,11.7-18.9,17.1c-5.7,5.2-10.2,9.5-13.6,13.1c-4.4-1.4-7.6-3.7-9.6-6.9c-1.8-3.4-2.7-6.8-2.7-10.1c0-2,0.3-3.7,0.8-5.3
		c2-4.1,5-9.3,9.1-15.7c4.1-6.6,8.4-13.3,13.1-20.3c4.6-6.9,8.9-13.3,12.8-19.2c3.9-6,6.8-10.6,8.5-13.6c-0.5-0.9-1.5-0.2-2.9,2.1
		c-1.4,2.1-3,4.9-4.8,8.3c-1.8,3.2-3.5,6.1-5.1,8.8c-1.6,2.5-2.7,3.6-3.2,3.5c0-0.2,0.7-1.6,2.1-4.3c1.4-2.7,3-5.7,4.8-9.1
		c2-3.6,3.6-6.7,5.1-9.3c1.4-2.7,2.1-4.1,2.1-4.3c-0.4-0.9-0.7-1.7-1.1-2.4c-0.4-0.9-0.5-1.6-0.5-2.1c0-1.8,1.2-2.7,3.7-2.7
		c1.2,0,2.9,0.3,5.1,0.8c1.2,0.2,3.1,0.7,5.6,1.6c2.7,0.7,5.2,2,7.5,3.7s3.5,4.1,3.5,6.9c0,2-0.6,3.9-1.9,5.9
		c-2.1,2.5-4.7,6-7.7,10.7c-3,4.4-6.1,9.2-9.3,14.4c-3.2,5-6,9.6-8.5,13.9c-2.5,4.3-4.3,7.4-5.3,9.3c3.2-2.5,7.6-6.5,13.1-12
		c5.5-5.5,11.5-11.6,17.9-18.4c6.4-6.9,12.6-13.6,18.7-20c6.2-6.4,11.6-11.6,16-15.5c2.7,1.1,5.9,2.5,9.6,4.3s6.8,3.6,9.1,5.6
		s2.8,3.9,1.3,5.9c-6,8.2-11.4,15-16,20.5c-4.6,5.5-9.2,10.9-13.6,16.3c-4.3,5.2-9.2,11.5-14.9,18.9c-5,6.6-10,13.4-14.9,20.5
		c-5,6.9-9.9,13.9-14.7,20.8c-5.9,8.5-11.4,16.7-16.5,24.5c-5.2,7.8-10,15.2-14.7,22.1c0.2-0.9,1.5-3.5,4-7.7
		c2.7-4.3,5.8-9.2,9.3-14.9c3.6-5.5,7-10.9,10.4-16.3c3.6-5.3,6.5-9.8,8.8-13.3c2.3-3.6,3.4-5.2,3.2-5.1c-0.2,0.2-1.3,1.7-3.5,4.5
		c-2,2.8-4.4,6.3-7.2,10.4c-2.8,4.1-5.5,8.1-8,12c-2.5,3.9-4.4,7.1-5.9,9.6c-2.3,4.1-4.8,8.2-7.5,12.3c-2.5,4.1-4.5,7.5-6.1,10.1
		c-1.4,2.8-1.8,4.4-1.1,4.8c2.7-1.1,5.1-1.6,7.2-1.6c2.8,0,4.8,0.8,5.9,2.4c0.7,0.9,1.1,1.7,1.1,2.4c0,0.7-0.8,1-2.4,0.8
		c-1.1-0.2-3,0.9-5.9,3.2c-2.7,2.3-5,4.6-6.9,6.9c-1.8,2.3-3.4,4.7-4.8,7.2C569.3,562.2,567.6,563.6,565.6,563.6L565.6,563.6z"/>
	<path id="path2086" class="st2" d="M683.8,479.6c-5-4.1-9.2-7.9-12.8-11.5c-3.4-3.6-5.1-7-5.1-10.4c0-0.9,0.1-1.6,0.3-2.1
		c1.8-6.2,5-13.6,9.6-22.1c4.8-8.5,10.4-17.7,16.8-27.5c6.6-10,13.5-19.9,20.8-29.9c7.3-10.1,14.4-19.7,21.3-28.8
		c7.1-9.2,13.6-17.4,19.5-24.5c5.9-7.3,10.6-13,14.1-17.1s5.4-6.1,5.6-6.1c1.8,0.5,4.4,2.3,8,5.3c3.6,2.8,6,5.8,7.2,8.8
		c0.4,0.4,0.5,0.7,0.5,1.1c0.2,2.1,1.4,4.1,3.7,5.9c2.3,1.8,3.5,3.7,3.5,5.9c0,6-2.3,12.6-6.9,19.7c-4.6,6.9-10.7,14-18.1,21.3
		c-7.5,7.3-15.6,14.5-24.3,21.6c-8.7,6.9-17.3,13.4-25.9,19.5c-8.4,5.9-15.6,11-21.9,15.5c-5.3,7.5-8.5,14.1-9.6,20
		c-0.9,5.9-1.2,10.2-1.1,13.1c8.7-5.9,17-12.4,24.8-19.7c2-1.6,4.8-3.8,8.5-6.7c3.9-3,7.9-6,12-8.8c4.1-2.8,7.2-4.9,9.3-6.1
		c2-1.1,3.5-2,4.5-2.7c1.2-0.7,1.2-0.5-0.3,0.5c-4.3,3.4-10,7.6-17.1,12.8c10.1-6.8,20.3-11.7,30.4-14.9c2-0.7,3.5-1.1,4.5-1.1
		c1.8,0,1.7,1-0.3,2.9c-2,1.8-4.3,3.6-6.9,5.6c-12.3,8.9-24.9,18.2-37.9,28C707.9,456.8,695.5,467.7,683.8,479.6L683.8,479.6z
		 M710.4,409.4c6.8-5,13.2-10.3,19.2-16c6-5.9,12.1-11.6,18.1-17.1c10.5-10,18.9-19.6,25.3-29.1c6.6-9.4,10.8-17.8,12.5-25.1
		c-3.2,3.6-7.6,8.4-13.1,14.7c-5.3,6-11.3,12.9-17.9,20.5c-6.6,7.5-13.3,15.2-20.3,23.2c-6.8,8-13.2,15.6-19.2,22.9
		c-0.5,0.5-1.2,1.3-2.1,2.4C712.4,406.9,711.5,408,710.4,409.4L710.4,409.4z M693.6,459.8c2-2,4.4-4.3,7.5-6.9c3-2.7,6.5-6,10.4-9.9
		c1.8-1.8,4.4-4.3,8-7.5c3.7-3.2,7.6-6.2,11.5-9.1c-7.1,5-13.3,9.6-18.7,13.9c-5.3,4.3-10.2,8.3-14.7,12l-3.7,4.5
		c-1.1,1.2-1.5,2.2-1.3,2.9S693.1,460.5,693.6,459.8z"/>
	<path id="path2088" class="st2" d="M775.8,474.2c-3.9,0-8.1-1.5-12.5-4.5c-4.4-3-8.3-6.6-11.5-10.7c-3-4.1-4.5-7.8-4.5-11.2
		c0-6.4,1.9-13.2,5.6-20.5c3.9-7.5,8.9-14.8,14.9-21.9c6.2-7.1,12.8-13.4,19.7-18.9s13.6-9.5,20-12c1.8-0.7,3.4-1.2,4.8-1.3
		s2.5-0.3,3.2-0.3c2.1,0,4.6,1.5,7.5,4.5c2.8,2.8,5.4,6,7.7,9.3c2.3,3.4,3.6,6,4,7.7c0,2.8-1.7,6.3-5.1,10.4
		c-3.2,3.9-7.5,8-12.8,12.3c-5.3,4.1-11.1,7.9-17.3,11.5c-6,3.6-11.9,6.4-17.6,8.5c-5.7,2-10.6,2.8-14.7,2.7
		c-2.8,5.2-4.3,9.4-4.3,12.8c0,1.8,0.4,3.4,1.3,4.8c0.9,1.2,2.7,1.8,5.3,1.6c4.3-1.4,9.6-4,16-7.7s13.2-7.9,20.5-12.5
		c7.5-4.8,14.8-9.4,21.9-13.9c7.3-4.6,13.8-8.4,19.5-11.5c3-1.6,5.2-2.4,6.7-2.4c1.2,0,1.9,0.4,1.9,1.3c0,0.7-0.8,1.9-2.4,3.5
		c-1.4,1.6-3.6,3.2-6.7,4.8c-1.6,0.9-3.4,2-5.3,3.2c-2,1.2-4,2.7-6.1,4.3c-5,3.6-10.3,7.6-16,12.3c-5.5,4.6-11.1,9.2-16.8,13.9
		c-5.5,4.6-10.7,8.7-15.5,12.3C782.6,470.1,778.8,472.6,775.8,474.2L775.8,474.2z M772.8,431c5.3-2,11-4.7,17.1-8.3
		c6-3.6,11.7-7.3,17.1-11.2c5.3-4.1,9.6-7.7,12.8-10.9l1.3-1.3c0-0.4-1.1,0.3-3.2,1.9l-22.4,16.5c-0.2,0.2-0.4,0.3-0.8,0.3
		c-0.2,0-0.1-0.2,0.3-0.5c0.4-0.5,1-1.1,1.9-1.6c3.6-2.5,7.2-5.2,10.9-8.3c3.7-3.2,7.3-6.2,10.7-9.1c4.3-3.4,6.4-5.4,6.4-6.1
		c-4.1,0-9.3,2-15.7,5.9c-6.4,3.9-12.9,8.8-19.5,14.7C783.2,418.8,777.6,424.8,772.8,431L772.8,431z"/>
	<path id="path2090" class="st2" d="M883.5,481.7c-3.4,0-7.6-1.2-12.8-3.7c-5.2-2.5-10-5.5-14.7-9.1c-4.4-3.6-7.6-6.8-9.3-9.6
		c-2.1-3.7-3.2-6.8-3.2-9.3c0-1.4,0.4-2.1,1.3-2.1c1.6,0,3.9,1.9,6.9,5.6c1.2,1.6,3.6,3.2,6.9,4.8c3.6,1.4,7.5,2.7,11.7,3.7
		c4.4,1.1,8.5,1.6,12.3,1.6c0.9,0,1.6,0,2.1,0c0.7,0,1.4-0.1,2.1-0.3c-0.2-4.1-2-8.3-5.3-12.5c-3.4-4.4-7.3-9.1-11.7-13.9
		c-4.3-4.8-8-9.7-11.2-14.7c-2.3-3.6-3.5-7.3-3.5-11.2c0-5.3,2.1-10.4,6.4-15.2c4.3-4.8,9.5-9.2,15.7-13.1c1.6-0.9,3.2-1.8,4.8-2.7
		c1.6-0.9,3.2-1.7,4.8-2.4c-2.8,0.9-5.7,2-8.5,3.2c-2.8,1.2-5.5,2.6-8,4h-0.3c-0.2,0,0-0.2,0.5-0.5c0.5-0.5,1-0.9,1.3-1.1
		c7.1-4.6,14.6-7.8,22.4-9.6c8-1.8,15-2.7,21.1-2.7c1.4,0,2.8,0.1,4,0.3c1.2,0,2.4,0.1,3.5,0.3c0.5,0.2,0.9,0.4,1.1,0.8
		s-0.2,0.5-1.1,0.5l4.5,1.6c1.6,0.7,3,3,4.3,6.9c1.4,3.7,2.4,7.1,2.9,10.1l0,0c0.2-0.2,0.3-0.4,0.3-0.5c0.4-0.9,0.5-1.6,0.5-2.1
		c0-0.7,0.1-1.4,0.3-2.1c0.2-0.4,0.6,0.3,1.3,1.9c0.7,1.4,1.3,3.1,1.9,5.1c0.7,1.8,1.1,3.3,1.1,4.5c-0.2,3.2-1.3,6.7-3.5,10.4
		s-4.4,6.7-6.9,8.8c-2.3,2.1-4.3,2.6-5.9,1.3c2-2.1,3.5-4.6,4.5-7.5c-3.9,5.5-8.6,10.3-14.1,14.4c-5.3,3.9-9.6,5.9-12.8,5.9
		c-1.6,0-2.4-0.4-2.4-1.3c0-0.5,0.4-1.2,1.1-2.1c0.9-0.9,1.5-1.4,1.9-1.6c1.8-1.1,4-2.8,6.7-5.3c2.7-2.7,5.3-5.7,8-9.1
		c2.7-3.4,5-6.7,6.9-9.9c2.1-3.2,3.6-5.9,4.3-8c0-3-2.1-4.5-6.4-4.5c-2.5,0-5.4,0.4-8.8,1.3c-3.2,0.9-6.5,2-9.9,3.2
		c-6.6,2.3-12.6,5.4-18.1,9.3s-8.3,8.2-8.3,12.8c0,1.8,0.5,3.6,1.6,5.6c3.4,5.2,6.8,10.5,10.4,16c3.6,5.5,6.6,10.6,9.1,15.2
		c2.5,4.4,3.7,7.9,3.7,10.4c0,1.1-0.8,2.6-2.4,4.5c-1.4,2-3.2,3.9-5.3,5.9c-2,2.1-3.9,3.9-5.9,5.3
		C885.7,480.9,884.4,481.7,883.5,481.7L883.5,481.7z"/>
</g>
</svg>
