<?xml version="1.0" encoding="UTF-8" standalone="no"?>
<!-- Generator: Adobe Illustrator 22.0.0, SVG Export Plug-In . SVG Version: 6.00 Build 0)  -->

<svg
   version="1.1"
   id="Layer_1"
   x="0px"
   y="0px"
   viewBox="0 0 1047.1322 660.37749"
   xml:space="preserve"
   sodipodi:docname="pymolstyles.svg"
   inkscape:version="1.1.2 (08b2f3d93c, 2022-04-05)"
   width="1047.1322"
   height="660.3775"
   inkscape:export-filename="/home/attilio/github/pymolstyles/img/pymolstyles.png"
   inkscape:export-xdpi="300"
   inkscape:export-ydpi="300"
   xmlns:inkscape="http://www.inkscape.org/namespaces/inkscape"
   xmlns:sodipodi="http://sodipodi.sourceforge.net/DTD/sodipodi-0.dtd"
   xmlns:xlink="http://www.w3.org/1999/xlink"
   xmlns="http://www.w3.org/2000/svg"
   xmlns:svg="http://www.w3.org/2000/svg"><defs
   id="defs147">
	

		<defs
   id="defs5">
			<rect
   id="SVGID_1_"
   y="0"
   width="725.70001"
   height="725.70001"
   x="0" />
		</defs>
		<clipPath
   id="SVGID_2_">
			<use
   xlink:href="#SVGID_1_"
   style="overflow:visible"
   id="use7"
   x="0"
   y="0"
   width="100%"
   height="100%" />
		</clipPath>
		
	
			
			
			
				<radialGradient
   id="SVGID_3_"
   cx="159.91141"
   cy="2143.3689"
   r="157.6748"
   gradientTransform="matrix(0.7896,0,0,0.7896,442.134,-1392.6041)"
   gradientUnits="userSpaceOnUse">
				<stop
   offset="0"
   style="stop-color:#000000"
   id="stop14" />
				<stop
   offset="1"
   style="stop-color:#000000;stop-opacity:0"
   id="stop16" />
			</radialGradient>
			
			
			
				<radialGradient
   id="SVGID_4_"
   cx="412.07089"
   cy="1932.7336"
   r="157.565"
   gradientTransform="matrix(0.846,0,0,0.846,-189.612,-1049.7927)"
   gradientUnits="userSpaceOnUse">
				<stop
   offset="0"
   style="stop-color:#000000"
   id="stop25" />
				<stop
   offset="1"
   style="stop-color:#000000;stop-opacity:0"
   id="stop27" />
			</radialGradient>
			
			
				<linearGradient
   id="SVGID_5_"
   gradientUnits="userSpaceOnUse"
   x1="110.7078"
   y1="1990.894"
   x2="179.75909"
   y2="2101.6284"
   gradientTransform="translate(0,-1488.3307)">
				<stop
   offset="0"
   style="stop-color:#F5F500"
   id="stop32" />
				<stop
   offset="1"
   style="stop-color:#616102"
   id="stop34" />
			</linearGradient>
			
			
				<linearGradient
   id="SVGID_6_"
   gradientUnits="userSpaceOnUse"
   x1="357.76849"
   y1="1485.213"
   x2="367.76761"
   y2="2205.3396"
   gradientTransform="translate(0,-1488.3307)">
				<stop
   offset="0"
   style="stop-color:#A1A1A1"
   id="stop39" />
				<stop
   offset="1"
   style="stop-color:#2E2E44"
   id="stop41" />
			</linearGradient>
			
			
				<linearGradient
   id="SVGID_7_"
   gradientUnits="userSpaceOnUse"
   x1="358.65039"
   y1="1493.1461"
   x2="366.99829"
   y2="2136.1599"
   gradientTransform="translate(0,-1488.3307)">
				<stop
   offset="0"
   style="stop-color:#9D9D9E"
   id="stop46" />
				<stop
   offset="1"
   style="stop-color:#3A566F"
   id="stop48" />
			</linearGradient>
			
			
				<linearGradient
   id="SVGID_8_"
   gradientUnits="userSpaceOnUse"
   x1="528.32208"
   y1="1714.8237"
   x2="590.8537"
   y2="1821.6534"
   gradientTransform="translate(0,-1488.3307)">
				<stop
   offset="0"
   style="stop-color:#F5F500"
   id="stop53" />
				<stop
   offset="1"
   style="stop-color:#616102"
   id="stop55" />
			</linearGradient>
			
			
				<linearGradient
   id="SVGID_9_"
   gradientUnits="userSpaceOnUse"
   x1="268.04559"
   y1="1999.6179"
   x2="247.1474"
   y2="1972.8448"
   gradientTransform="translate(0,-1488.3307)">
				<stop
   offset="0"
   style="stop-color:#565656"
   id="stop60" />
				<stop
   offset="1"
   style="stop-color:#A4A4A4"
   id="stop62" />
			</linearGradient>
			
			
				<linearGradient
   id="SVGID_10_"
   gradientUnits="userSpaceOnUse"
   x1="525.3266"
   y1="1820.9243"
   x2="510.14011"
   y2="1796.256"
   gradientTransform="translate(0,-1488.3307)">
				<stop
   offset="0"
   style="stop-color:#565656"
   id="stop67" />
				<stop
   offset="1"
   style="stop-color:#A4A4A4"
   id="stop69" />
			</linearGradient>
			
			
				<radialGradient
   id="SVGID_11_"
   cx="423.86151"
   cy="1836.3356"
   r="157.62421"
   gradientTransform="matrix(1.0506,0,0,1.0506,-44.5089,-1530.1542)"
   gradientUnits="userSpaceOnUse">
				<stop
   offset="0"
   style="stop-color:#000000"
   id="stop74" />
				<stop
   offset="1"
   style="stop-color:#000000;stop-opacity:0"
   id="stop76" />
			</radialGradient>
			
			
			
			
				<linearGradient
   id="SVGID_12_"
   gradientUnits="userSpaceOnUse"
   x1="329.25781"
   y1="1776.4469"
   x2="437.95831"
   y2="1938.5798"
   gradientTransform="translate(0,-1488.3307)">
				<stop
   offset="0"
   style="stop-color:#FFFFFF"
   id="stop89" />
				<stop
   offset="1"
   style="stop-color:#738494"
   id="stop91" />
			</linearGradient>
			
			
				<linearGradient
   id="SVGID_13_"
   gradientUnits="userSpaceOnUse"
   x1="494.46552"
   y1="1984.7042"
   x2="518.38251"
   y2="1961.1627"
   gradientTransform="translate(0,-1488.3307)">
				<stop
   offset="0"
   style="stop-color:#565656"
   id="stop96" />
				<stop
   offset="1"
   style="stop-color:#A4A4A4"
   id="stop98" />
			</linearGradient>
			
			
				<radialGradient
   id="SVGID_14_"
   cx="108.6403"
   cy="1966.9601"
   r="157.6165"
   gradientTransform="matrix(0.7601,0,0,0.8108,523.3225,-1002.7113)"
   gradientUnits="userSpaceOnUse">
				<stop
   offset="0"
   style="stop-color:#000000"
   id="stop103" />
				<stop
   offset="1"
   style="stop-color:#000000;stop-opacity:0"
   id="stop105" />
			</radialGradient>
			
			
				<radialGradient
   id="SVGID_15_"
   cx="317.2153"
   cy="2243.6262"
   r="157.6011"
   gradientTransform="matrix(0.7887,0,0,0.7887,14.4123,-1659.448)"
   gradientUnits="userSpaceOnUse">
				<stop
   offset="0"
   style="stop-color:#000000"
   id="stop110" />
				<stop
   offset="1"
   style="stop-color:#000000;stop-opacity:0"
   id="stop112" />
			</radialGradient>
			
			
				<linearGradient
   id="SVGID_16_"
   gradientUnits="userSpaceOnUse"
   x1="561.66412"
   y1="1990.8149"
   x2="645.04437"
   y2="2127.6064"
   gradientTransform="translate(0,-1488.3307)">
				<stop
   offset="0"
   style="stop-color:#F5F500"
   id="stop117" />
				<stop
   offset="1"
   style="stop-color:#616102"
   id="stop119" />
			</linearGradient>
			
			
				<linearGradient
   id="SVGID_17_"
   gradientUnits="userSpaceOnUse"
   x1="307.10901"
   y1="1719.0703"
   x2="337.67331"
   y2="1704.4082"
   gradientTransform="translate(0,-1488.3307)">
				<stop
   offset="0"
   style="stop-color:#565656"
   id="stop124" />
				<stop
   offset="1"
   style="stop-color:#A4A4A4"
   id="stop126" />
			</linearGradient>
			
			
				<linearGradient
   id="SVGID_18_"
   gradientUnits="userSpaceOnUse"
   x1="215.94389"
   y1="1508.5747"
   x2="290.2038"
   y2="1633.6415"
   gradientTransform="translate(0,-1488.3307)">
				<stop
   offset="0"
   style="stop-color:#ffcc00;stop-opacity:1"
   id="stop131" />
				<stop
   offset="1"
   style="stop-color:#ffdd55;stop-opacity:1"
   id="stop133" />
			</linearGradient>
			
		
				
					
			
				
					
			
				
					
			<filter
   style="color-interpolation-filters:sRGB"
   inkscape:label="Drop Shadow"
   id="filter5483"
   x="-0.048977426"
   y="-0.031734154"
   width="1.0645252"
   height="1.0816897"><feFlood
     flood-opacity="0.0941176"
     flood-color="rgb(0,0,0)"
     result="flood"
     id="feFlood5473" /><feComposite
     in="flood"
     in2="SourceGraphic"
     operator="in"
     result="composite1"
     id="feComposite5475" /><feGaussianBlur
     in="composite1"
     stdDeviation="4.66577"
     result="blur"
     id="feGaussianBlur5477" /><feOffset
     dx="-24.0767"
     dy="6.42969"
     result="offset"
     id="feOffset5479" /><feComposite
     in="SourceGraphic"
     in2="offset"
     operator="over"
     result="composite2"
     id="feComposite5481" /></filter><linearGradient
   inkscape:collect="always"
   xlink:href="#SVGID_18_"
   id="linearGradient959"
   x1="189.41689"
   y1="560.2381"
   x2="896.33264"
   y2="252.68233"
   gradientUnits="userSpaceOnUse"
   spreadMethod="pad" /><linearGradient
   inkscape:collect="always"
   xlink:href="#SVGID_18_"
   id="linearGradient1886"
   gradientUnits="userSpaceOnUse"
   x1="189.41689"
   y1="560.2381"
   x2="896.33264"
   y2="252.68233"
   spreadMethod="pad" /><linearGradient
   inkscape:collect="always"
   xlink:href="#SVGID_18_"
   id="linearGradient1888"
   gradientUnits="userSpaceOnUse"
   x1="189.41689"
   y1="560.2381"
   x2="896.33264"
   y2="252.68233"
   spreadMethod="pad" /><linearGradient
   inkscape:collect="always"
   xlink:href="#SVGID_18_"
   id="linearGradient1890"
   gradientUnits="userSpaceOnUse"
   x1="189.41689"
   y1="560.2381"
   x2="896.33264"
   y2="252.68233"
   spreadMethod="pad" /><linearGradient
   inkscape:collect="always"
   xlink:href="#SVGID_18_"
   id="linearGradient1892"
   gradientUnits="userSpaceOnUse"
   x1="189.41689"
   y1="560.2381"
   x2="896.33264"
   y2="252.68233"
   spreadMethod="pad" /><linearGradient
   inkscape:collect="always"
   xlink:href="#SVGID_18_"
   id="linearGradient1894"
   gradientUnits="userSpaceOnUse"
   x1="189.41689"
   y1="560.2381"
   x2="896.33264"
   y2="252.68233"
   spreadMethod="pad" /></defs><sodipodi:namedview
   id="namedview145"
   pagecolor="#ffffff"
   bordercolor="#cccccc"
   borderopacity="1"
   inkscape:pageshadow="0"
   inkscape:pageopacity="1"
   inkscape:pagecheckerboard="0"
   showgrid="false"
   inkscape:zoom="0.37805902"
   inkscape:cx="780.30145"
   inkscape:cy="334.60384"
   inkscape:window-width="1920"
   inkscape:window-height="948"
   inkscape:window-x="0"
   inkscape:window-y="27"
   inkscape:window-maximized="1"
   inkscape:current-layer="Layer_1"
   fit-margin-top="0"
   fit-margin-left="0"
   fit-margin-right="0"
   fit-margin-bottom="0" />
<style
   type="text/css"
   id="style2">
	.st0{clip-path:url(#SVGID_2_);}
	.st1{fill:#515151;}
	.st2{fill:#2C2C2C;}
	.st3{fill:url(#SVGID_3_);}
	.st4{opacity:0.5;}
	.st5{fill:url(#SVGID_4_);}
	.st6{fill:url(#SVGID_5_);}
	.st7{fill:url(#SVGID_6_);}
	.st8{fill:url(#SVGID_7_);}
	.st9{fill:url(#SVGID_8_);}
	.st10{fill:url(#SVGID_9_);}
	.st11{fill:url(#SVGID_10_);}
	.st12{fill:url(#SVGID_11_);}
	.st13{fill:url(#SVGID_12_);}
	.st14{fill:url(#SVGID_13_);}
	.st15{fill:url(#SVGID_14_);}
	.st16{fill:url(#SVGID_15_);}
	.st17{fill:url(#SVGID_16_);}
	.st18{fill:url(#SVGID_17_);}
	.st19{fill:url(#SVGID_18_);}
</style>
<rect
   style="fill:#ececec;fill-opacity:1;stroke-width:9.06459;stroke-linecap:round;stroke-linejoin:round;stop-color:#000000"
   id="rect925"
   width="1047.1322"
   height="660.3775"
   x="0"
   y="0" />
<g
   id="g1367"
   transform="translate(105.09087,94.80962)"><path
     id="path3775-7"
     style="font-size:333.333px;line-height:1.25;font-family:'Fjalla One';-inkscape-font-specification:'Fjalla One, Normal';letter-spacing:-15px;fill:#1a1a1a;stroke-width:10;stroke-linejoin:round"
     d="m 72.541242,5.6321012 c -12.642185,0.0156 -25.286703,-0.0543 -37.927313,0.0713 -3.542127,0.4692 -6.844935,3.32774 -7.18778,6.9926198 -0.363248,2.8799 -0.01926,5.78772 -0.148579,8.679431 -0.0011,90.082288 8.79e-4,180.164588 0.0059,270.246878 0.249395,3.27465 2.319849,6.65224 5.628787,7.53106 2.975634,0.89296 6.110778,0.29596 9.159884,0.4672 11.964387,-0.007 23.931817,0.0541 35.894222,-0.0599 3.188862,-0.4112 6.36612,-2.6072 7.083086,-5.87465 0.756741,-2.90637 0.213181,-5.93325 0.376644,-8.89343 0.0026,-22.64271 0.0052,-45.28542 0.0078,-67.92812 0.319748,-0.49652 0.381404,-1.26386 0.871384,-1.58174 0.787486,-0.44567 1.663198,-0.47655 2.545351,-0.47715 1.497594,-0.0596 3.304669,-0.17509 4.764906,-0.27705 2.788127,-0.21904 5.569947,-0.51646 8.337886,-0.91797 0.5626,-0.0953 1.46302,-0.22829 2.15509,-0.34375 9.70047,-1.60496 19.17176,-4.85345 27.58929,-9.97444 9.64009,-5.79308 17.91307,-13.90241 23.66017,-23.58862 1.59592,-2.6351 3.04187,-5.38132 4.30957,-8.11326 4.62277,-10.0282 7.51321,-20.78288 9.34057,-31.64985 0.62222,-3.85684 1.08635,-7.73759 1.42969,-11.62891 0.10963,-1.36867 0.23685,-2.97597 0.32697,-4.43703 0.15813,-2.55387 0.28727,-5.40378 0.34864,-7.98346 0.14409,-6.93182 0.13585,-13.86775 0.0168,-20.799865 -0.0592,-2.663322 -0.1586,-5.302277 -0.34934,-8.005235 -0.96387,-14.030772 -4.10467,-28.239478 -10.43161,-40.943944 -1.77021,-3.517798 -3.71914,-6.784015 -6.01897,-10.003221 -5.77567,-8.147277 -13.48811,-14.886434 -22.30891,-19.563604 -1.63241,-0.87934 -3.31306,-1.69495 -4.92936,-2.41857 -2.10111,-0.94106 -4.28703,-1.79822 -6.38272,-2.53452 -1.54404,-0.53932 -3.31164,-1.09824 -4.96529,-1.56794 C 107.7566,7.7314812 99.366214,6.6294312 91.144851,6.1281612 84.939766,5.7362712 78.779132,5.5846512 72.541335,5.6320612 Z M 88.476789,52.94265 c 5.213666,0.726608 10.590962,2.171026 14.665451,5.667661 4.10331,3.638941 6.25696,8.965506 7.19613,14.266902 1.67886,8.574847 1.54121,17.35651 1.57978,26.054496 -0.0534,7.918031 0.0738,15.837741 -0.0964,23.754511 -0.23662,8.61347 -0.94241,17.28731 -3.17677,25.63691 -1.53254,5.46848 -4.0801,10.95852 -8.650427,14.53442 -3.514031,2.73716 -7.908589,4.05029 -12.265789,4.65541 -0.759866,-0.66334 -1.560145,-1.29633 -2.294922,-1.97851 0,-36.90235 0,-73.804691 0,-110.707035 0.323134,-0.486854 0.374444,-1.283706 0.876867,-1.566092 0.724387,-0.203696 1.403443,-0.559117 2.166102,-0.318673 z" /><path
     id="path3777-3"
     style="font-size:333.333px;line-height:1.25;font-family:'Fjalla One';-inkscape-font-specification:'Fjalla One, Normal';letter-spacing:-15px;fill:#1a1a1a;stroke-width:10;stroke-linejoin:round"
     d="m 286.44163,59.485619 c -13.45578,0.05744 -26.91462,-0.04491 -40.36849,0.08662 -3.20815,0.412375 -6.42556,2.613569 -7.11588,5.917287 -0.81806,3.229384 -1.02913,6.570478 -1.64351,9.839211 -4.86117,31.636813 -9.71266,63.275103 -14.55571,94.914693 -1.06253,0.11216 -2.1449,0.3714 -3.19534,0.394 -0.73501,-0.0947 -0.89565,-0.65001 -0.9331,-1.30409 -6.57391,-34.49585 -13.12167,-68.99666 -19.71726,-103.488346 -0.91995,-3.10871 -3.57308,-6.02667 -6.96711,-6.205465 -3.91625,-0.30522 -7.84768,-0.0326 -11.77039,-0.134842 -10.55576,0.01617 -21.11579,-0.06219 -31.66875,0.0825 -3.52766,0.508644 -6.67077,3.41759 -7.07124,7.023026 -0.35574,2.872508 0.85414,5.606332 1.37881,8.380217 17.13446,72.79137 34.26891,145.58273 51.40336,218.3741 0.0691,2.07885 -0.24945,4.1604 -0.50188,6.22301 -0.94217,6.60708 -3.00347,13.21347 -6.95925,18.65912 -3.37681,4.49574 -8.5358,7.59896 -14.0997,8.43755 -4.42535,0.88032 -8.96949,0.58217 -13.42429,0.14294 -3.23403,0.0217 -6.52618,2.01639 -7.55334,5.17174 -1.07709,2.90372 -0.49798,6.05073 -0.67209,9.06954 -0.0288,6.55668 -0.17571,13.11781 -0.0322,19.672 0.49527,3.17891 2.73122,6.24507 5.95462,7.03302 4.93312,1.79955 10.06882,3.03353 15.27645,3.70241 0.83378,0.10165 1.95523,0.23137 2.90251,0.30769 4.31763,0.38143 8.66894,0.35357 12.9842,-0.046 0.40219,-0.0489 1.15755,-0.11505 1.58096,-0.16948 9.67,-1.10956 19.21594,-4.26237 27.20867,-9.9012 4.07472,-2.84819 7.67524,-6.34174 10.82952,-10.17541 0.44057,-0.5382 1.06175,-1.32517 1.5488,-1.97902 6.40876,-8.48571 10.52803,-18.4374 13.69314,-28.52097 1.53107,-4.94463 2.80451,-9.98997 3.89728,-14.99061 1.29256,-6.04016 2.46711,-12.238 3.7366,-18.34101 14.76137,-72.69717 29.53715,-145.3924 44.28958,-218.09075 0.65347,-3.3499 -0.69341,-7.31909 -3.88806,-8.882334 -1.38495,-0.766039 -2.95067,-1.267248 -4.54688,-1.201171 z" /><path
     id="path3779-2"
     style="font-size:333.333px;line-height:1.25;font-family:'Fjalla One';-inkscape-font-specification:'Fjalla One, Normal';letter-spacing:-15px;fill:#1a1a1a;stroke-width:10;stroke-linejoin:round"
     d="m 467.43968,5.6164812 c -17.77945,0.0442 -35.56149,-0.0383 -53.3393,0.0722 -3.20253,0.39236 -6.41314,2.57011 -7.20171,5.8242498 -4.26402,16.313457 -8.39915,32.75379 -12.60599,49.118177 -5.27346,20.647048 -10.57704,41.286842 -15.7563,61.957402 -0.53757,2.35806 -1.05603,4.72028 -1.56545,7.08458 -1.1459,0.0554 -2.31504,0.24289 -3.44658,0.2166 -0.72784,-0.10265 -0.53145,-0.95609 -0.74327,-1.47791 -2.68156,-12.27297 -5.89565,-24.51345 -8.90293,-36.773092 -6.62306,-26.706779 -13.24632,-53.414034 -19.89745,-80.114037 -1.12485,-3.1734498 -4.14222,-5.9649998 -7.66014,-5.8380598 -14.91389,-0.11293 -29.82843,-0.0248 -44.7426,-0.0565 -3.74585,0.0223 -7.499,-0.0235 -11.23984,0.10937 -3.44036,0.57913 -6.59158,3.39036 -6.92738,6.9682498 -0.35318,2.84353 -0.0129,5.71336 -0.14293,8.56808 -10e-4,90.115499 8.8e-4,180.230989 0.006,270.346489 0.24833,3.30677 2.36312,6.70699 5.71404,7.5583 2.95394,0.85137 6.05382,0.27201 9.07463,0.43998 11.04121,-0.007 22.08547,0.054 33.12469,-0.0599 3.18913,-0.41099 6.36652,-2.60697 7.08308,-5.87465 0.75903,-2.90602 0.21185,-5.93339 0.37671,-8.89343 -0.006,-34.32142 0.0715,-68.64327 -0.0968,-102.96435 -0.0632,-5.48166 -0.14812,-10.96301 -0.24119,-16.44424 0.94396,-0.25842 1.88762,-0.67929 2.83177,-0.83733 0.59214,0.18823 1.34264,0.22945 1.27444,1.03076 7.18541,30.77489 14.32803,61.56177 21.56095,92.32431 1.08685,3.13703 4.01688,5.9202 7.48911,5.84139 5.60582,0.18403 11.21552,0.007 16.82303,0.0787 3.62949,0.002 7.31967,0.022 10.87226,-0.10777 3.18122,-0.49293 6.29695,-2.77852 6.92694,-6.06525 1.29284,-4.97611 2.34252,-10.01172 3.54138,-15.01101 5.90183,-25.50582 11.80367,-51.01166 17.70551,-76.51749 0.98065,-0.0234 1.99983,-0.20351 2.95658,-0.12975 0.52906,0.32258 1.24153,0.54323 0.98509,1.30237 -0.34862,28.74363 -0.18002,57.48987 -0.22292,86.2348 0.009,12.84354 -0.0257,25.68956 0.0507,38.5315 0.38142,3.20987 2.56075,6.42686 5.84215,7.16847 2.97656,0.78275 6.07816,0.22317 9.1107,0.39857 10.9722,-0.0121 21.94745,0.0473 32.91766,-0.0656 3.18913,-0.41099 6.36652,-2.60697 7.08308,-5.87465 0.75898,-2.90602 0.21196,-5.93339 0.37662,-8.89343 0.009,-90.41745 0.007,-180.8349 -0.006,-271.252339 -0.27649,-3.29327 -2.4216,-6.6669098 -5.7707,-7.4782298 -1.03713,-0.32665 -2.13122,-0.47012 -3.21758,-0.4456 z" /><path
     id="path3781-6"
     style="font-size:333.333px;line-height:1.25;font-family:'Fjalla One';-inkscape-font-specification:'Fjalla One, Normal';letter-spacing:-15px;fill:#1a1a1a;stroke-width:10;stroke-linejoin:round"
     d="m 560.78343,3.2063212 c -9.33404,0.25301 -18.7775,1.26081 -27.60156,4.47266 -0.46504,0.16813 -0.97149,0.36105 -1.48919,0.56903 -11.33296,4.3397498 -21.56509,11.8830798 -28.41674,21.9678498 -7.57723,10.807605 -12.08063,23.473507 -14.78041,36.314056 -2.01168,9.65847 -2.80071,19.527447 -3.07733,29.375623 -0.16014,6.19187 -0.0905,12.57309 -0.1035,18.83789 0.0243,30.90482 -0.058,61.81029 0.09,92.71465 0.19909,8.69224 0.90808,17.48925 2.35524,26.00019 2.31339,13.37609 6.3731,26.87269 13.79095,38.4451 3.99422,6.23819 8.99188,11.86651 14.9278,16.31858 0.67827,0.50711 1.58156,1.17818 2.37245,1.71564 1.52551,1.0609 3.10395,2.04382 4.71349,2.97186 0.47411,0.27152 1.25114,0.7048 1.84997,1.01874 1.84777,0.98482 3.91898,1.9504 5.74378,2.69805 5.93281,2.47496 12.24489,3.96059 18.63073,4.62888 2.26542,0.26798 4.45998,0.46627 6.77421,0.60526 1.53475,0.0892 2.95664,0.14045 4.53383,0.16574 9.4895,0.10086 19.08759,-1.05416 28.05342,-4.26707 0.34944,-0.14078 1.05767,-0.38718 1.54771,-0.59082 10.23817,-4.09796 19.51661,-10.6497 26.69208,-19.03373 2.2664,-2.66904 4.28821,-5.54048 6.10591,-8.53169 0.23176,-0.37969 0.55257,-0.91746 0.79491,-1.34513 3.69911,-6.38771 6.51922,-13.4389 8.62892,-20.38925 1.36497,-4.52515 2.49247,-9.12138 3.37109,-13.76562 0.21829,-1.15945 0.46568,-2.57383 0.67127,-3.83484 0.46408,-2.95063 0.83287,-5.76358 1.11712,-8.74302 0.45213,-4.49971 0.71249,-9.17775 0.82537,-13.70019 0.20509,-9.78372 0.068,-19.57045 0.1089,-29.35555 -0.0159,-27.46054 0.0602,-54.9218 -0.0927,-82.381817 -0.16114,-6.970253 -0.67916,-13.93407 -1.62997,-20.842009 -0.15783,-1.118994 -0.35677,-2.482801 -0.56175,-3.69448 -1.61864,-9.734028 -4.14489,-19.452916 -8.13747,-28.563332 -4.09216,-9.294175 -9.90009,-17.994874 -17.79125,-24.486331 -7.54645,-6.29083 -16.61292,-10.6839498 -26.15601,-12.9628898 -0.44838,-0.0954 -1.25268,-0.29172 -1.8434,-0.40483 -5.27881,-1.07278 -10.6654,-1.51089 -16.03582,-1.82165 -1.99289,-0.0894 -3.98727,-0.12784 -5.98211,-0.10555 z m 2.41406,49.2089848 c 3.22589,0.08713 6.76851,0.828068 8.94844,3.411093 3.33985,4.053503 4.48994,9.343244 5.41305,14.3848 2.01079,11.72471 1.39873,23.663356 1.50581,35.501761 -0.0103,38.77031 0.046,77.54128 -0.0754,116.31112 -0.21862,7.75582 -0.77568,15.63419 -3.29334,23.02878 -1.0806,2.98971 -2.59983,6.17345 -5.53323,7.73155 -3.27834,1.63963 -7.08578,1.69665 -10.6621,1.36582 -3.10731,-0.28601 -6.38672,-1.46419 -8.19765,-4.15492 -2.75742,-3.88843 -3.85894,-8.64996 -4.67675,-13.27027 -1.35392,-8.64663 -1.13386,-17.42998 -1.20157,-26.15346 0.0204,-41.41928 -0.0566,-82.83911 0.0796,-124.258066 0.20373,-8.055011 0.63944,-16.260727 3.28459,-23.941629 0.98328,-2.62681 2.24722,-5.267432 4.30263,-7.226503 2.73755,-2.415339 6.61589,-2.764179 10.10592,-2.730076 z" /><path
     id="path3783-5"
     style="font-size:333.333px;line-height:1.25;font-family:'Fjalla One';-inkscape-font-specification:'Fjalla One, Normal';letter-spacing:-15px;fill:#1a1a1a;stroke-width:10;stroke-linejoin:round"
     d="m 686.59984,5.6321012 c -10.45729,0.009 -20.91692,-0.0422 -31.37264,0.0712 -3.54293,0.46808 -6.84679,3.32727 -7.18972,6.9927198 -0.36325,2.8799 -0.0193,5.78772 -0.14858,8.679431 -0.001,90.082288 8.8e-4,180.164588 0.006,270.246878 0.24899,3.30655 2.36176,6.70796 5.71405,7.5583 2.95394,0.85125 6.05382,0.27224 9.07462,0.43981 31.03035,-0.004 62.06276,0.0348 93.09181,-0.0261 3.23308,-0.3363 6.50966,-2.47353 7.29634,-5.76755 0.82396,-2.92929 0.25067,-5.99853 0.42095,-8.99114 -0.0179,-9.02347 0.0691,-18.05081 -0.0728,-27.07175 -0.4562,-3.1449 -2.6398,-6.24638 -5.86564,-6.95777 -2.93919,-0.75505 -5.99715,-0.20879 -8.98898,-0.37525 -13.50664,-0.003 -27.01328,-0.005 -40.51992,-0.008 -0.49417,-0.32065 -1.26866,-0.37955 -1.57795,-0.87285 -0.33519,-0.70716 -0.51558,-1.44236 -0.42205,-2.22715 0.003,-77.92695 -0.002,-155.853908 -0.0137,-233.780859 -0.27913,-3.28821 -2.41507,-6.6551798 -5.75639,-7.4763298 -2.36429,-0.75298 -4.87577,-0.34653 -7.3104,-0.44452 -2.12162,0.004 -4.24324,0.007 -6.36485,0.0107 z" /><g
     id="g3850"
     transform="translate(-186.87282,-186.62992)"
     style="fill:url(#linearGradient959);fill-opacity:1;filter:url(#filter5483)"><path
       d="m 222.14737,200.26918 h 42.1549 q 7.97526,0 17.41535,0.8138 9.60286,0.65104 19.04295,3.41797 9.60286,2.60416 18.39191,8.13801 8.95181,5.53385 15.78775,15.13671 6.83593,9.44009 10.90493,23.76299 4.23177,14.32291 4.23177,34.8307 v 9.76561 q 0,22.29816 -3.90625,38.24866 -3.74348,15.78775 -10.09113,26.69269 -6.34765,10.74217 -14.81119,17.25258 -8.30077,6.51041 -17.41534,9.92838 -8.95182,3.25521 -18.22915,4.39453 -9.11458,0.97656 -17.25259,0.97656 h -4.06901 v 84.63533 h -42.1549 z m 44.27079,162.43474 q 11.39321,0 19.20571,-3.25521 7.81249,-3.41796 12.36978,-10.41665 4.72004,-7.16145 6.67317,-18.22915 2.11588,-11.23046 2.11588,-26.85544 v -25.06508 q 0,-12.36978 -1.79036,-21.3216 -1.79037,-9.11457 -6.51041,-14.97394 -4.55729,-5.85937 -12.36978,-8.62629 -7.81249,-2.92969 -19.69399,-2.92969 h -2.11589 v 131.67305 z"
       id="path3775"
       style="font-size:333.333px;line-height:1.25;font-family:'Fjalla One';-inkscape-font-specification:'Fjalla One, Normal';letter-spacing:-15px;fill:url(#linearGradient1886);fill-opacity:1;stroke-width:10;stroke-linejoin:round" /><path
       d="m 345.91024,521.39517 q 9.27733,1.30208 17.08982,-0.65104 7.81249,-1.79036 13.34634,-6.99869 5.69661,-5.20833 8.95182,-13.83462 3.41796,-8.46354 3.90624,-20.34504 L 336.14462,254.14283 h 41.82939 l 23.60023,124.02331 6.83593,42.80595 h 1.30209 l 4.72004,-42.80595 19.04295,-124.02331 h 40.52731 l -47.20048,232.42165 q -3.09244,16.11326 -7.97525,28.15752 -4.72005,12.04426 -11.8815,20.01951 -6.99869,7.97525 -16.7643,11.8815 -9.76562,4.06901 -22.78644,4.06901 -10.57942,0 -21.64711,-4.06901 z"
       id="path3777"
       style="font-size:333.333px;line-height:1.25;font-family:'Fjalla One';-inkscape-font-specification:'Fjalla One, Normal';letter-spacing:-15px;fill:url(#linearGradient1888);fill-opacity:1;stroke-width:10;stroke-linejoin:round" /><path
       d="m 468.13662,200.26918 h 55.01297 l 26.69268,107.58453 q 4.23177,17.90363 6.67317,34.17966 2.44141,16.11326 4.72005,30.43616 h 1.30208 q 2.27865,-14.3229 4.72005,-30.43616 2.44141,-16.27603 6.67317,-34.17966 l 27.50649,-107.58453 h 53.87364 V 478.2637 h -39.38798 v -91.95954 q 0,-21.15884 0.32552,-40.69007 0.48828,-19.53123 1.13932,-35.80725 0.65104,-16.43879 1.46484,-28.97133 0.8138,-12.53254 1.46485,-19.85675 h -3.09245 L 575.23287,442.45645 H 548.54019 L 506.22252,260.97876 h -3.09244 q 0.65104,7.32421 1.46484,19.85675 0.8138,12.53254 1.46484,28.97133 0.65105,16.27602 0.97657,35.80725 0.48828,19.53123 0.48828,40.69007 v 91.95954 h -39.38799 z"
       id="path3779"
       style="font-size:333.333px;line-height:1.25;font-family:'Fjalla One';-inkscape-font-specification:'Fjalla One, Normal';letter-spacing:-15px;fill:url(#linearGradient1890);fill-opacity:1;stroke-width:10;stroke-linejoin:round" /><path
       d="m 749.36032,480.70511 q -6.67317,0 -14.48566,-1.13933 -7.8125,-0.97656 -15.46223,-4.39452 -7.64973,-3.41797 -14.81118,-9.60286 -6.99869,-6.34765 -12.53254,-16.60154 -5.37109,-10.2539 -8.6263,-25.22784 -3.2552,-15.13671 -3.2552,-35.97002 v -98.46996 q 0,-20.99607 3.2552,-35.80725 3.41797,-14.97395 8.95182,-25.06508 5.53385,-10.2539 12.53254,-16.27603 7.16145,-6.02213 14.81118,-9.11457 7.81249,-3.25521 15.46223,-4.23177 7.64973,-0.97656 14.16014,-0.97656 6.18489,0 13.67186,0.97656 7.64973,0.8138 15.1367,3.90625 7.64974,2.92968 14.81119,8.95181 7.16145,5.85937 12.6953,16.11327 5.53385,10.09113 8.78905,25.22784 3.41797,14.97394 3.41797,36.29553 V 387.769 q 0,20.67055 -3.41797,35.6445 -3.41796,14.81118 -8.95181,25.22784 -5.53385,10.25389 -12.85806,16.60154 -7.16145,6.18489 -14.81119,9.76562 -7.48697,3.41796 -14.97394,4.55728 -7.48697,1.13933 -13.5091,1.13933 z m 0,-31.73825 q 6.18489,0 10.74218,-2.11589 4.72004,-2.11588 7.64973,-7.32421 3.09244,-5.20833 4.55729,-13.67186 1.6276,-8.62629 1.6276,-21.64711 V 277.74306 q 0,-13.34634 -1.6276,-22.29815 -1.46485,-8.95181 -4.55729,-14.3229 -2.92969,-5.53385 -7.64973,-7.8125 -4.55729,-2.27864 -10.74218,-2.27864 -6.34765,0 -11.0677,2.27864 -4.72005,2.27865 -7.81249,7.8125 -3.09245,5.37109 -4.72005,14.3229 -1.46484,8.95181 -1.46484,22.29815 v 126.46473 q 0,13.02082 1.46484,21.64711 1.6276,8.46353 4.72005,13.67186 3.09244,5.20833 7.81249,7.32421 4.72005,2.11589 11.0677,2.11589 z"
       id="path3781"
       style="font-size:333.333px;line-height:1.25;font-family:'Fjalla One';-inkscape-font-specification:'Fjalla One, Normal';letter-spacing:-15px;fill:url(#linearGradient1892);fill-opacity:1;stroke-width:10;stroke-linejoin:round" /><path
       d="m 842.75863,200.26918 h 42.15491 v 244.79143 h 57.45437 v 33.20309 h -99.60928 z"
       id="path3783"
       style="font-size:333.333px;line-height:1.25;font-family:'Fjalla One';-inkscape-font-specification:'Fjalla One, Normal';letter-spacing:-15px;fill:url(#linearGradient1894);fill-opacity:1;stroke-width:10;stroke-linejoin:round" /></g><g
     aria-label="Styles"
     id="text3089-6"
     style="font-size:266.667px;line-height:1.25;font-family:Smooch;-inkscape-font-specification:'Smooch, Normal';fill:#aa0000;stroke:#333333;stroke-width:4"><path
       d="m 381.08425,393.55816 q -5.86667,-5.06668 -8.26667,-9.60002 -2.13334,-4.26667 -2.13334,-8.26667 0,-1.6 0.53334,-2.93334 0.26666,-1.6 0.53333,-3.2 1.33333,-4.00001 6.13334,-13.60002 5.06667,-9.60001 12.00001,-21.86669 7.20001,-12.26669 15.20002,-24.80003 8.00001,-12.80002 15.20002,-22.93337 -2.4,0.53334 -5.06667,0.80001 -2.4,0.26666 -4.80001,0.26666 -6.66667,0 -12.00001,-0.8 -5.06667,-1.06667 -5.86668,-1.33333 -2.66667,-0.53334 -3.46667,-3.46667 -0.53333,-3.20001 -0.26666,-6.40001 -0.8,-0.26667 -1.06667,-0.8 -0.26667,-0.53334 -0.53334,-0.8 0,-0.53334 -0.26666,-1.06667 0,-0.53334 0,-1.06667 0,-2.66667 1.33333,-3.46667 1.6,-0.8 3.46667,-0.8 2.13334,0 4.53334,0.53333 2.66667,0.26667 5.33334,0.26667 4.53334,0 9.60001,-0.8 5.06668,-1.06667 5.86668,-2.66667 0.8,-1.6 1.6,-1.6 0.53333,0 1.6,2.93333 0,0.26667 0,0.53334 0.26667,0.26666 0.26667,0.8 0,2.4 -2.13334,5.06667 h 11.46668 q 4.53334,-5.86667 9.86668,-13.06668 5.60001,-7.46668 10.93335,-14.66669 5.60001,-7.46667 9.86668,-13.33335 4.53334,-5.86667 6.66667,-9.06667 -1.06667,-1.06667 -1.06667,-2.66667 0,-2.13334 1.06667,-4.26668 1.33334,-2.13333 1.33334,-3.2 0,-0.8 -0.53334,-1.86667 -0.26666,-1.06667 -0.26666,-1.86667 0,-2.13333 2.4,-2.13333 0.53333,0 2.66667,0.53333 3.46667,1.06667 8.80001,4.26667 5.60001,3.20001 9.60001,7.20001 4.00001,4.00001 2.4,8.26668 -1.86666,2.13333 -6.66667,7.46667 -4.53334,5.33334 -10.40001,12.26669 -5.86668,6.66667 -11.73335,13.86668 -5.60001,6.93334 -10.13335,12.80002 7.20001,-0.53334 14.66669,-0.80001 7.73334,-0.26666 13.60001,-0.53333 6.13335,-0.26667 8.00001,-0.26667 4.80001,0 4.80001,1.33334 0,1.06667 -2.13334,2.13333 -2.13333,1.06667 -4.53333,1.60001 -0.26667,-0.26667 -7.46668,0.53333 -6.93334,0.8 -13.86668,1.6 -3.20001,0.26667 -8.26668,0.8 -4.80001,0.26667 -9.33335,0.53334 l -1.06666,1.06666 q 5.86667,-0.26666 13.06668,-0.53333 7.46668,-0.53333 11.73335,-0.53333 -4.53334,0.8 -12.00002,1.33333 -7.46667,0.26667 -14.40002,1.33334 -5.33334,5.86667 -12.00001,14.66668 -6.40001,8.53335 -13.60002,18.40002 -6.93334,9.60002 -13.33335,18.93336 -6.4,9.06668 -11.46668,16.26669 -5.06667,7.20001 -7.73334,10.66668 3.73334,-1.33334 8.80001,-3.73334 5.06667,-2.66667 10.13335,-5.60001 11.73334,-7.73334 25.06669,-16.80002 13.60002,-9.06668 23.73337,-15.73335 6.4,-4.00001 12.53335,-8.53335 6.4,-4.8 12.26668,-9.86667 0.53333,-0.53334 0.53333,0 0.26667,0.53333 -0.26667,1.06666 l -10.13334,9.06668 q 0.26667,1.06667 0.26667,2.13334 0,0.8 0,1.86667 0,2.4 -0.80001,4.53334 -0.53333,2.13333 -2.4,3.46667 -4.53334,2.93333 -13.86668,9.60001 -9.06668,6.66667 -20.53336,15.46668 -11.46668,8.53335 -22.6667,17.33336 -10.93334,8.80001 -19.46669,16.26668 -8.53334,7.46668 -11.46668,11.46669 z m 4.53334,-26.6667 12.80002,-8.00001 -10.93335,5.06667 z"
       id="path2082" /><path
       d="m 256.81761,406.62484 q -2.93334,0 -6.13334,-1.06667 -3.20001,-1.06667 -5.60001,-3.73334 -2.4,-2.4 -2.4,-4.53334 0,-1.33333 1.06667,-2.66667 0.8,-1.33333 1.86666,-2.66667 2.40001,-2.93333 9.06668,-8.00001 6.66668,-4.8 15.20002,-10.93334 l -7.46667,6.93334 q -1.06667,1.06667 -2.13334,2.93334 -0.8,2.13333 0.26667,1.06666 2.4,-2.93333 11.20001,-9.86667 8.80001,-7.20001 18.66669,-14.66669 l -20.53336,13.60002 q 9.06668,-6.93334 18.66669,-13.86669 9.60001,-6.93334 17.33336,-12.53335 8,-5.6 11.73334,-7.73334 0.26667,-0.26666 0.8,-0.26666 1.06667,0 1.06667,0.8 0,1.06666 -2.13333,1.86667 -3.20001,1.33333 -10.93335,6.66667 -7.46668,5.06667 -16.00002,11.46668 10.40001,-6.93334 19.73336,-12.53335 9.60001,-5.86667 14.66668,-8.80001 -3.2,-2.13333 -10.40001,-4.8 -7.20001,-2.66667 -16.53335,-6.40001 -9.06668,-4.00001 -18.66669,-9.33335 -9.33335,-5.33334 -16.53336,-12.53335 -3.46667,-3.2 -5.06667,-6.66667 -1.33334,-3.73334 -1.33334,-7.20001 0,-8.26668 6.66668,-17.06669 6.93334,-8.80001 18.13335,-17.33335 11.46669,-8.53335 24.80004,-16.00002 6.4,-3.46667 13.06668,-6.66668 6.93334,-3.46667 13.60001,-6.4 -7.46667,2.66667 -14.66668,5.6 -7.20001,2.93334 -13.86668,6.13334 -0.26667,0.26667 -0.53334,0.26667 -0.26666,0 -0.26666,0 l 4.8,-2.93334 q 14.13335,-6.93334 28.53337,-12.00001 14.66668,-5.33334 27.73337,-9.33335 -7.73335,2.40001 -15.73336,5.60001 -8.00001,2.93334 -16.00002,6.66668 15.73336,-5.60001 31.46671,-9.60002 16.00002,-4.26667 29.60004,-6.4 13.60001,-2.40001 22.40002,-2.66667 5.06668,-0.26667 5.06668,-1.33334 0,-0.8 -2.66667,-0.8 -9.06668,0.26667 -21.8667,1.86667 -12.80001,1.6 -27.73336,5.33334 14.13335,-4.00001 26.66669,-6.40001 12.80002,-2.4 22.13336,-2.4 4.80001,0 8.80002,0.8 3.46667,0.53333 6.13334,4.53334 2.66667,3.73334 4.8,8.80001 2.13334,4.80001 2.93334,9.06668 l 0.26667,-0.8 q 1.06666,-1.86667 1.33333,-3.20001 0.26667,-1.6 1.06667,-2.93333 0.53333,-0.80001 2.4,2.13333 2.13334,2.93334 3.73334,6.66668 1.86667,3.73333 1.33333,6.4 -0.8,4.80001 -5.06667,10.66668 -4.26667,5.60001 -10.13334,10.93335 -5.60001,5.33334 -11.46668,8.80001 -5.60001,3.46667 -9.86668,3.46667 -1.06667,0 -2.66667,-0.53333 3.2,-2.66667 5.86667,-5.60001 2.66667,-2.93334 5.06667,-5.86667 -10.13334,9.06668 -22.93336,17.33335 -12.53335,8.00001 -24.00003,13.06668 -11.46668,5.06668 -18.13335,5.06668 -3.46667,0 -3.46667,-1.33334 0,-1.33333 2.93333,-3.2 2.93334,-2.13334 4.26668,-2.93334 6.4,-2.93334 15.73335,-9.60001 9.60001,-6.66667 19.46669,-14.66668 9.86668,-8.26668 17.33335,-15.73336 7.73335,-7.73334 10.40002,-12.53335 0.26666,-2.66667 -4.00001,-3.73333 -4.26667,-1.06667 -11.20001,-1.06667 -8.80001,0 -21.33336,1.86667 -12.26668,1.86667 -25.8667,5.33334 -13.60002,3.46667 -26.13337,8.26667 -12.53334,4.80001 -21.86669,10.93335 -6.40001,3.46667 -12.80001,8.80001 -6.40001,5.06667 -10.66668,10.93335 -4.26668,5.86667 -4.26668,11.46668 0,4.53334 4.00001,8.53334 10.66668,9.60001 22.93336,16.00002 12.53335,6.40001 22.93336,11.46668 10.66668,4.80001 15.46669,10.13335 1.33333,1.33333 1.86667,4 0.8,2.66667 0.8,5.60001 0,5.06667 -1.60001,9.60001 -1.6,4.53334 -4.53333,5.06667 -22.40003,4.53334 -38.40005,10.93335 -15.73335,6.40001 -25.60003,12.53335 -9.86668,6.13334 -14.66669,10.13335 -4.53334,4 -5.06667,3.73333 2.13334,2.93334 2.13334,5.60001 0,2.93334 -2.66667,4.53334 -2.66667,1.86667 -6.40001,1.86667 z m 107.4668,-191.20024 1.06666,-0.26666 h 0.53334 l 0.8,-0.26667 0.53333,-0.26667 q 0.8,-0.26666 0.8,-0.26666 0,0 0.80001,-0.26667 0,0 -0.26667,0 0,0 -1.33334,0.53333 -0.26666,0 -0.53333,0.26667 -0.53333,0 -0.8,0.26667 -0.26667,0 -0.53334,0.26666 -0.26666,0 0,-0.26666 -0.53333,0.26666 -1.06666,0.26666 z"
       id="path2080" /><path
       d="m 460.55097,468.75825 q -1.33333,0 -4.53334,-2.40001 -0.8,-0.8 -4,-3.46667 -3.20001,-2.4 -5.86668,-5.6 -2.93333,-2.93334 -2.93333,-5.06668 0,-1.33333 2.66667,-5.33334 2.66667,-3.73333 6.4,-8.80001 5.60001,-7.73334 13.60002,-18.66669 8.26668,-10.93334 17.60002,-23.46669 9.33335,-12.26668 18.66669,-24.53336 9.33335,-12.53335 17.33336,-23.20003 8.26667,-10.93335 13.86668,-18.66669 5.86667,-8.00001 8.00001,-11.20002 0.53333,-0.8 -1.86667,2.13334 -2.4,2.66667 -6.13334,7.20001 -3.73334,4.26667 -7.20001,8.80001 -3.2,4.26667 -4.53334,6.40001 0.26667,-1.33334 3.20001,-5.33334 2.93333,-4.00001 6.66667,-9.06668 4.00001,-5.06667 7.20001,-9.33335 3.46667,-4.26667 4.53334,-5.86667 -7.20001,8.00001 -17.06669,17.33336 -9.60001,9.06667 -20.00002,18.13335 -10.13335,9.06668 -18.93336,17.06669 -8.53334,7.73334 -13.60002,13.06668 -6.66667,-2.13333 -9.60001,-6.93334 -2.66667,-5.06667 -2.66667,-10.13335 0,-2.93333 0.8,-5.33334 2.93334,-6.13334 9.06668,-15.73335 6.13334,-9.86668 13.06668,-20.26669 6.93334,-10.40001 12.80002,-19.20002 5.86667,-9.06668 8.53334,-13.60002 -0.8,-1.33334 -2.93333,2.13334 -2.13334,3.2 -4.80001,8.26667 -2.66667,4.80001 -5.06667,8.80001 -2.40001,3.73334 -3.20001,3.46667 0,-0.26666 2.13334,-4.26667 2.13333,-4 4.8,-9.06668 2.93334,-5.33334 5.06668,-9.33334 2.13333,-4.00001 2.13333,-4.26667 -0.53333,-1.33334 -1.06666,-2.40001 -0.53334,-1.33333 -0.53334,-2.13333 0,-2.66667 3.73334,-2.66667 1.86667,0 5.06667,0.8 1.86667,0.26667 5.60001,1.6 4,1.06667 7.46667,3.73334 3.46668,2.66667 3.46668,6.93334 0,2.93334 -1.86667,5.86668 -3.20001,3.73333 -7.73335,10.66668 -4.53333,6.66667 -9.33334,14.40001 -4.80001,7.46668 -8.53334,13.86669 -3.73334,6.4 -5.33334,9.33334 4.8,-3.73334 13.06668,-12.00001 8.26667,-8.26668 17.86669,-18.40003 9.60001,-10.40001 18.66669,-20.00002 9.33334,-9.60001 16.00002,-15.46669 4,1.60001 9.60001,4.26668 5.6,2.66667 9.06668,5.6 3.46667,2.93334 1.33333,5.86668 -9.06668,12.26668 -16.00002,20.53335 -6.93334,8.26668 -13.60002,16.26669 -6.4,7.73334 -14.93335,18.93336 -7.46667,9.86668 -14.93335,20.53336 -7.46667,10.40001 -14.66668,20.80002 -8.80001,12.80002 -16.53336,24.53336 -7.73334,11.73335 -14.66668,22.13337 0.26667,-1.33334 4,-7.73335 4.00001,-6.40001 9.33335,-14.93335 5.33334,-8.26668 10.40001,-16.26669 5.33334,-8.00001 8.80001,-13.33335 3.46667,-5.33334 3.20001,-5.06667 -0.26667,0.26667 -3.46668,4.53334 -2.93333,4.26667 -7.2,10.40001 -4.26668,6.13334 -8.00001,12.00002 -3.73334,5.86667 -5.86668,9.60001 -3.46667,6.13334 -7.46667,12.26668 -3.73334,6.13334 -6.13334,10.13335 -2.13334,4.26667 -1.06667,4.8 4,-1.6 7.20001,-1.6 4.26667,0 5.86667,2.4 1.06667,1.33334 1.06667,2.40001 0,1.06666 -2.40001,0.8 -1.6,-0.26667 -5.86667,3.2 -4,3.46667 -6.93334,6.93334 -2.66667,3.46667 -4.80001,7.20001 -2.13333,4.00001 -5.06667,4.00001 z"
       id="path2084" /><path
       d="m 578.68404,384.75814 q -7.46668,-6.13334 -12.80002,-11.46668 -5.06667,-5.33334 -5.06667,-10.40001 0,-1.33333 0.26667,-2.13333 2.66667,-9.33335 9.60001,-22.13336 7.20001,-12.80002 16.80002,-27.46671 9.86668,-14.93335 20.80003,-29.8667 10.93334,-15.20002 21.33335,-28.80003 10.66668,-13.86669 19.46669,-24.53337 8.80002,-10.93334 14.13336,-17.06668 5.33334,-6.13334 5.6,-6.13334 2.66667,0.8 8.00001,5.33333 5.33334,4.26668 7.20001,8.80002 0.53333,0.53333 0.53333,1.06666 0.26667,3.20001 3.73334,5.86668 3.46667,2.66667 3.46667,5.86667 0,9.06668 -6.93334,19.73336 -6.93334,10.40001 -18.13335,21.33336 -11.20002,10.93334 -24.2667,21.60002 -13.06668,10.40002 -25.8667,19.46669 -12.53335,8.80002 -21.86669,15.46669 -8.00001,11.20001 -9.60001,20.00002 -1.33334,8.80002 -1.06667,13.06669 13.06668,-8.80001 24.80003,-19.73336 2.93334,-2.4 8.53334,-6.66667 5.86668,-4.53334 12.00002,-8.80002 6.13334,-4.26667 9.33334,-6.13334 2.93334,-1.6 4.53334,-2.66667 1.86667,-1.06666 -0.26667,0.53334 -6.4,5.06667 -17.06668,12.80001 15.20002,-10.13334 30.40003,-14.93335 2.93334,-1.06667 4.53334,-1.06667 2.66667,0 -0.26666,2.93334 -2.93334,2.66667 -6.93335,5.60001 -18.40002,13.33335 -37.86671,28.00003 -19.46669,14.66669 -37.06671,32.53337 z m 26.6667,-70.13341 q 10.13334,-7.46668 19.20002,-16.00002 9.06668,-8.80001 18.13336,-17.06669 15.73335,-14.93335 25.33336,-29.0667 9.86668,-14.13335 12.53335,-25.0667 -4.80001,5.33334 -13.06668,14.66668 -8.00001,9.06668 -17.86669,20.53336 -9.86668,11.20002 -20.26669,23.20003 -10.13335,12.00002 -19.20003,22.93336 -0.8,0.8 -2.13333,2.4 -1.06667,1.33334 -2.66667,3.46668 z m -16.80002,50.40006 q 2.93333,-2.93334 7.46667,-6.93334 4.53334,-4.00001 10.40002,-9.86668 2.66667,-2.66667 8.00001,-7.46668 5.6,-4.8 11.46668,-9.06668 -10.66668,7.46668 -18.66669,13.86669 -8.00001,6.4 -14.66669,12.00001 l -3.73334,4.53334 q -1.6,1.86667 -1.33333,2.93334 0.26667,1.06667 1.06667,0 z"
       id="path2086" /><path
       d="m 670.68365,379.4248 q -5.86668,0 -12.53335,-4.53333 -6.66668,-4.53334 -11.46668,-10.66668 -4.53334,-6.13334 -4.53334,-11.20002 0,-9.60001 5.60001,-20.53336 5.86667,-11.20001 14.93335,-21.86669 9.33334,-10.66668 19.73336,-18.93336 10.40001,-8.26667 20.00002,-12.00001 2.66667,-1.06667 4.80001,-1.33334 2.13333,-0.26666 3.2,-0.26666 3.2,0 7.46668,4.53334 4.26667,4.26667 7.73334,9.33334 3.46667,5.06667 4,7.73334 0,4.26668 -5.06667,10.40002 -4.80001,5.86667 -12.80002,12.26668 -8,6.13334 -17.33335,11.46668 -9.06668,5.33334 -17.60002,8.53334 -8.53334,2.93334 -14.66669,2.66667 -4.26667,7.73335 -4.26667,12.80002 0,2.66667 1.33334,4.8 1.33333,1.86667 5.33334,1.60001 6.40001,-2.13334 16.00002,-7.73335 9.60001,-5.6 20.53336,-12.53335 11.20001,-7.2 21.86669,-13.86668 10.93335,-6.93334 19.46669,-11.46668 4.53334,-2.4 6.66667,-2.4 1.86667,0 1.86667,1.33333 0,1.06667 -2.4,3.46667 -2.13334,2.40001 -6.66668,4.80001 -2.4,1.33333 -5.33333,3.2 -2.93334,1.86667 -6.13335,4.26668 -7.46667,5.33334 -16.00002,12.26668 -8.26667,6.93334 -16.80002,13.86668 -8.26667,6.93334 -15.46668,12.26668 -6.93334,5.33334 -11.46668,7.73334 z m -2.93334,-43.20005 q 8.00001,-2.93333 17.06669,-8.26667 9.06668,-5.33334 17.06669,-11.20002 8.00001,-6.13334 12.80001,-10.93334 l 1.33334,-1.33334 q 0,-0.53333 -3.20001,1.86667 l -22.40002,16.53335 q -0.26667,0.26667 -0.80001,0.26667 -0.26666,0 0.26667,-0.53333 0.53334,-0.80001 1.86667,-1.60001 5.33334,-3.73333 10.93335,-8.26667 5.6,-4.80001 10.66668,-9.06668 6.4,-5.06667 6.4,-6.13334 -6.13334,0 -15.73335,5.86667 -9.60001,5.86668 -19.46669,14.66669 -9.60001,8.80001 -16.80002,18.13335 z"
       id="path2088" /><path
       d="m 778.41707,386.89148 q -5.06668,0 -12.80002,-3.73334 -7.73334,-3.73334 -14.66668,-9.06667 -6.66668,-5.33334 -9.33335,-9.60002 -3.2,-5.6 -3.2,-9.33334 0,-2.13334 1.33333,-2.13334 2.40001,0 6.93334,5.60001 1.86667,2.4 6.93335,4.80001 5.33334,2.13333 11.73334,3.73333 6.66668,1.60001 12.26669,1.60001 1.33333,0 2.13333,0 1.06667,0 2.13334,-0.26667 -0.26667,-6.13334 -5.33334,-12.53335 -5.06668,-6.66668 -11.73335,-13.86668 -6.40001,-7.20001 -11.20001,-14.66669 -3.46668,-5.33334 -3.46668,-11.20001 0,-8.00001 6.40001,-15.20002 6.40001,-7.20001 15.73336,-13.06668 2.4,-1.33334 4.8,-2.66667 2.4,-1.33334 4.80001,-2.40001 -4.26667,1.33334 -8.53335,3.20001 -4.26667,1.86667 -8.00001,4 h -0.26666 q -0.26667,0 0.53333,-0.53333 0.8,-0.8 1.33334,-1.06667 10.66668,-6.93334 22.40002,-9.60001 12.00002,-2.66667 21.0667,-2.66667 2.13333,0 4,0.26667 1.86667,0 3.46667,0.26666 0.8,0.26667 1.06667,0.8 0.26667,0.53334 -1.06667,0.53334 l 4.53334,1.6 q 2.4,1.06667 4.26667,6.93334 2.13334,5.60001 2.93334,10.13335 0,0 0,0 0.26667,-0.26667 0.26667,-0.53334 0.53333,-1.33333 0.53333,-2.13333 0,-1.06667 0.26667,-2.13334 0.26666,-0.53333 1.33333,1.86667 1.06667,2.13334 1.86667,5.06667 1.06667,2.66667 1.06667,4.53334 -0.26667,4.80001 -3.46667,10.40001 -3.20001,5.60001 -6.93334,8.80002 -3.46668,3.2 -5.86668,1.33333 2.93334,-3.2 4.53334,-7.46668 -5.86667,8.26668 -14.13335,14.40002 -8.00001,5.86668 -12.80002,5.86668 -2.4,0 -2.4,-1.33334 0,-0.8 1.06667,-2.13333 1.33333,-1.33334 1.86667,-1.60001 2.66667,-1.6 6.66667,-5.33334 4.00001,-4 8.00001,-9.06667 4.00001,-5.06668 6.93334,-9.86668 3.20001,-4.80001 4.26668,-8.00001 0,-4.53334 -6.40001,-4.53334 -3.73334,0 -8.80001,1.33333 -4.80001,1.33334 -9.86668,3.20001 -9.86668,3.46667 -18.13336,9.33334 -8.26667,5.86668 -8.26667,12.80002 0,2.66667 1.6,5.6 5.06667,7.73335 10.40001,16.00002 5.33334,8.26668 9.06668,15.20002 3.73334,6.66668 3.73334,10.40002 0,1.6 -2.40001,4.53333 -2.13333,2.93334 -5.33334,5.86668 -2.93333,3.2 -5.86667,5.33334 -2.66667,2.4 -4,2.4 z"
       id="path2090" /></g></g></svg>
